  0
SECTION
  2
HEADER
  9
$ACADVER
  1
AC1009
  9
$FILLMODE
 70
1
  9
$EXTMIN
 10
-0.0500
 20
1.8550
 30
0.0000
  9
$EXTMAX
 10
35.6100
 20
146.0750
 30
0.0000
  0
ENDSEC
  0
SECTION
  2
TABLES
  0
TABLE
  2
LTYPE
 70
1
  0
LTYPE
  2
CONTINUOUS
 70
64
  3
Solid line
 72
65
 73
0
 40
0
  0
ENDTAB
  0
TABLE
  2
LAYER
 70
255
  0
LAYER
  2
1
 70
64
 62
14
  6
CONTINUOUS
  0
LAYER
  2
16
 70
64
 62
174
  6
CONTINUOUS
  0
LAYER
  2
17
 70
64
 62
94
  6
CONTINUOUS
  0
LAYER
  2
18
 70
64
 62
94
  6
CONTINUOUS
  0
LAYER
  2
19
 70
64
 62
54
  6
CONTINUOUS
  0
LAYER
  2
20
 70
64
 62
178
  6
CONTINUOUS
  0
LAYER
  2
21
 70
64
 62
250
  6
CONTINUOUS
  0
LAYER
  2
22
 70
64
 62
250
  6
CONTINUOUS
  0
LAYER
  2
23
 70
64
 62
178
  6
CONTINUOUS
  0
LAYER
  2
24
 70
64
 62
178
  6
CONTINUOUS
  0
LAYER
  2
25
 70
64
 62
250
  6
CONTINUOUS
  0
LAYER
  2
26
 70
64
 62
250
  6
CONTINUOUS
  0
LAYER
  2
27
 70
64
 62
250
  6
CONTINUOUS
  0
LAYER
  2
28
 70
64
 62
250
  6
CONTINUOUS
  0
LAYER
  2
39
 70
64
 62
14
  6
CONTINUOUS
  0
LAYER
  2
40
 70
64
 62
174
  6
CONTINUOUS
  0
LAYER
  2
41
 70
64
 62
14
  6
CONTINUOUS
  0
LAYER
  2
42
 70
64
 62
174
  6
CONTINUOUS
  0
LAYER
  2
43
 70
64
 62
94
  6
CONTINUOUS
  0
LAYER
  2
45
 70
64
 62
250
  6
CONTINUOUS
  0
LAYER
  2
48
 70
64
 62
250
  6
CONTINUOUS
  0
LAYER
  2
49
 70
64
 62
250
  6
CONTINUOUS
  0
LAYER
  2
51
 70
64
 62
250
  6
CONTINUOUS
  0
LAYER
  2
52
 70
64
 62
250
  6
CONTINUOUS
  0
ENDTAB
  0
ENDSEC
  0
SECTION
  2
BLOCKS
  0
BLOCK
  8
0
  2
RECT
 70
64
 10
0.0000
 20
0.0000
 30
0.0000
  3
RECT
  0
SOLID
  8
0
 10
-0.5000
 20
-0.5000
 30
0.0000
 11
0.5000
 21
-0.5000
 31
0.0000
 12
-0.5000
 22
0.5000
 32
0.0000
 13
0.5000
 23
0.5000
 33
0.0000
  0
ENDBLK
  8
0
  0
BLOCK
  8
0
  2
PIE
 70
64
 10
0.0000
 20
0.0000
 30
0.0000
  3
PIE
  0
POLYLINE
  8
0
 66
1
 10
0.0000
 20
0.0000
 30
0.0000
 40
0.5000
 41
0.5000
 70
0
  0
VERTEX
  8
0
 10
0.0000
 20
-0.2500
 30
0.0000
 42
1.0000
  0
VERTEX
  8
0
 10
0.0000
 20
0.2500
 30
0.0000
 42
1.0000
  0
VERTEX
  8
0
 10
0.0000
 20
-0.2500
 30
0.0000
  0
SEQEND
  8
0
  0
ENDBLK
  8
0
  0
BLOCK
  8
0
  2
OCTAGONP
 70
64
 10
0.0000
 20
0.0000
 30
0.0000
  3
OCTAGONP
  0
POLYLINE
  8
0
 66
1
 10
0.0000
 20
0.0000
 30
0.0000
 40
0.5000
 41
0.5000
 70
0
  0
VERTEX
  8
0
 10
-0.2500
 20
-0.1036
 30
0.0000
  0
VERTEX
  8
0
 10
-0.2500
 20
0.1036
 30
0.0000
  0
VERTEX
  8
0
 10
-0.1036
 20
0.2500
 30
0.0000
  0
VERTEX
  8
0
 10
0.1036
 20
0.2500
 30
0.0000
  0
VERTEX
  8
0
 10
0.2500
 20
0.1036
 30
0.0000
  0
VERTEX
  8
0
 10
0.2500
 20
-0.1036
 30
0.0000
  0
VERTEX
  8
0
 10
0.1036
 20
-0.2500
 30
0.0000
  0
VERTEX
  8
0
 10
-0.1036
 20
-0.2500
 30
0.0000
  0
VERTEX
  8
0
 10
-0.2500
 20
-0.1036
 30
0.0000
  0
VERTEX
  8
0
 10
-0.2500
 20
0.1036
 30
0.0000
  0
SEQEND
  8
0
  0
ENDBLK
  8
0
  0
BLOCK
  8
0
  2
SQUAREP
 70
64
 10
0.0000
 20
0.0000
 30
0.0000
  3
SQUAREP
  0
SOLID
  8
0
 10
-0.5000
 20
-0.5000
 30
0.0000
 11
0.5000
 21
-0.5000
 31
0.0000
 12
-0.5000
 22
0.5000
 32
0.0000
 13
0.5000
 23
0.5000
 33
0.0000
  0
ENDBLK
  8
0
  0
BLOCK
  8
0
  2
ROUNDP
 70
64
 10
0.0000
 20
0.0000
 30
0.0000
  3
ROUNDP
  0
POLYLINE
  8
0
 66
1
 10
0.0000
 20
0.0000
 30
0.0000
 40
0.5000
 41
0.5000
 70
0
  0
VERTEX
  8
0
 10
0.0000
 20
-0.2500
 30
0.0000
 42
1.0000
  0
VERTEX
  8
0
 10
0.0000
 20
0.2500
 30
0.0000
 42
1.0000
  0
VERTEX
  8
0
 10
0.0000
 20
-0.2500
 30
0.0000
  0
SEQEND
  8
0
  0
ENDBLK
  8
0
  0
BLOCK
  8
0
  2
ANNULUSP
 70
64
 10
0.0000
 20
0.0000
 30
0.0000
  3
ANNULUSP
  0
POLYLINE
  8
0
 66
1
 10
0.0000
 20
0.0000
 30
0.0000
 40
0.5000
 41
0.5000
 70
0
  0
VERTEX
  8
0
 10
0.0000
 20
-0.2500
 30
0.0000
 42
1.0000
  0
VERTEX
  8
0
 10
0.0000
 20
0.2500
 30
0.0000
 42
1.0000
  0
VERTEX
  8
0
 10
0.0000
 20
-0.2500
 30
0.0000
  0
SEQEND
  8
0
  0
ENDBLK
  8
0
  0
BLOCK
  8
0
  2
THERMALP
 70
64
 10
0.0000
 20
0.0000
 30
0.0000
  3
THERMALP
  0
POLYLINE
  8
0
 66
1
 10
0.0000
 20
0.0000
 30
0.0000
 40
0.1000
 41
0.1000
 70
0
  0
VERTEX
  8
0
 10
-0.2379
 20
0.4500
 30
0.0000
  0
VERTEX
  8
0
 10
0.2379
 20
0.4500
 30
0.0000
  0
SEQEND
  8
0
  0
POLYLINE
  8
0
 66
1
 10
0.0000
 20
0.0000
 30
0.0000
 40
0.0500
 41
0.0500
 70
0
  0
VERTEX
  8
0
 10
0.2379
 20
0.4250
 30
0.0000
 42
1.0000
  0
VERTEX
  8
0
 10
0.2379
 20
0.4750
 30
0.0000
  0
SEQEND
  8
0
  0
POLYLINE
  8
0
 66
1
 10
0.0000
 20
0.0000
 30
0.0000
 40
0.0500
 41
0.0500
 70
0
  0
VERTEX
  8
0
 10
-0.2379
 20
0.4750
 30
0.0000
 42
1.0000
  0
VERTEX
  8
0
 10
-0.2379
 20
0.4250
 30
0.0000
  0
SEQEND
  8
0
  0
POLYLINE
  8
0
 66
1
 10
0.0000
 20
0.0000
 30
0.0000
 40
0.1000
 41
0.1000
 70
0
  0
VERTEX
  8
0
 10
0.4500
 20
0.2379
 30
0.0000
  0
VERTEX
  8
0
 10
0.4500
 20
-0.2379
 30
0.0000
  0
SEQEND
  8
0
  0
POLYLINE
  8
0
 66
1
 10
0.0000
 20
0.0000
 30
0.0000
 40
0.0500
 41
0.0500
 70
0
  0
VERTEX
  8
0
 10
0.4250
 20
-0.2379
 30
0.0000
 42
1.0000
  0
VERTEX
  8
0
 10
0.4750
 20
-0.2379
 30
0.0000
  0
SEQEND
  8
0
  0
POLYLINE
  8
0
 66
1
 10
0.0000
 20
0.0000
 30
0.0000
 40
0.0500
 41
0.0500
 70
0
  0
VERTEX
  8
0
 10
0.4750
 20
0.2379
 30
0.0000
 42
1.0000
  0
VERTEX
  8
0
 10
0.4250
 20
0.2379
 30
0.0000
  0
SEQEND
  8
0
  0
POLYLINE
  8
0
 66
1
 10
0.0000
 20
0.0000
 30
0.0000
 40
0.1000
 41
0.1000
 70
0
  0
VERTEX
  8
0
 10
0.2379
 20
-0.4500
 30
0.0000
  0
VERTEX
  8
0
 10
-0.2379
 20
-0.4500
 30
0.0000
  0
SEQEND
  8
0
  0
POLYLINE
  8
0
 66
1
 10
0.0000
 20
0.0000
 30
0.0000
 40
0.0500
 41
0.0500
 70
0
  0
VERTEX
  8
0
 10
-0.2379
 20
-0.4250
 30
0.0000
 42
1.0000
  0
VERTEX
  8
0
 10
-0.2379
 20
-0.4750
 30
0.0000
  0
SEQEND
  8
0
  0
POLYLINE
  8
0
 66
1
 10
0.0000
 20
0.0000
 30
0.0000
 40
0.0500
 41
0.0500
 70
0
  0
VERTEX
  8
0
 10
0.2379
 20
-0.4750
 30
0.0000
 42
1.0000
  0
VERTEX
  8
0
 10
0.2379
 20
-0.4250
 30
0.0000
  0
SEQEND
  8
0
  0
POLYLINE
  8
0
 66
1
 10
0.0000
 20
0.0000
 30
0.0000
 40
0.1000
 41
0.1000
 70
0
  0
VERTEX
  8
0
 10
-0.4500
 20
-0.2379
 30
0.0000
  0
VERTEX
  8
0
 10
-0.4500
 20
0.2379
 30
0.0000
  0
SEQEND
  8
0
  0
POLYLINE
  8
0
 66
1
 10
0.0000
 20
0.0000
 30
0.0000
 40
0.0500
 41
0.0500
 70
0
  0
VERTEX
  8
0
 10
-0.4250
 20
0.2379
 30
0.0000
 42
1.0000
  0
VERTEX
  8
0
 10
-0.4750
 20
0.2379
 30
0.0000
  0
SEQEND
  8
0
  0
POLYLINE
  8
0
 66
1
 10
0.0000
 20
0.0000
 30
0.0000
 40
0.0500
 41
0.0500
 70
0
  0
VERTEX
  8
0
 10
-0.4750
 20
-0.2379
 30
0.0000
 42
1.0000
  0
VERTEX
  8
0
 10
-0.4250
 20
-0.2379
 30
0.0000
  0
SEQEND
  8
0
  0
ENDBLK
  8
0
  0
BLOCK
  8
0
  2
OCTAGONV
 70
64
 10
0.0000
 20
0.0000
 30
0.0000
  3
OCTAGONV
  0
POLYLINE
  8
0
 66
1
 10
0.0000
 20
0.0000
 30
0.0000
 40
0.5000
 41
0.5000
 70
0
  0
VERTEX
  8
0
 10
-0.2500
 20
-0.1036
 30
0.0000
  0
VERTEX
  8
0
 10
-0.2500
 20
0.1036
 30
0.0000
  0
VERTEX
  8
0
 10
-0.1036
 20
0.2500
 30
0.0000
  0
VERTEX
  8
0
 10
0.1036
 20
0.2500
 30
0.0000
  0
VERTEX
  8
0
 10
0.2500
 20
0.1036
 30
0.0000
  0
VERTEX
  8
0
 10
0.2500
 20
-0.1036
 30
0.0000
  0
VERTEX
  8
0
 10
0.1036
 20
-0.2500
 30
0.0000
  0
VERTEX
  8
0
 10
-0.1036
 20
-0.2500
 30
0.0000
  0
VERTEX
  8
0
 10
-0.2500
 20
-0.1036
 30
0.0000
  0
VERTEX
  8
0
 10
-0.2500
 20
0.1036
 30
0.0000
  0
SEQEND
  8
0
  0
ENDBLK
  8
0
  0
BLOCK
  8
0
  2
SQUAREV
 70
64
 10
0.0000
 20
0.0000
 30
0.0000
  3
SQUAREV
  0
SOLID
  8
0
 10
-0.5000
 20
-0.5000
 30
0.0000
 11
0.5000
 21
-0.5000
 31
0.0000
 12
-0.5000
 22
0.5000
 32
0.0000
 13
0.5000
 23
0.5000
 33
0.0000
  0
ENDBLK
  8
0
  0
BLOCK
  8
0
  2
ROUNDV
 70
64
 10
0.0000
 20
0.0000
 30
0.0000
  3
ROUNDV
  0
POLYLINE
  8
0
 66
1
 10
0.0000
 20
0.0000
 30
0.0000
 40
0.5000
 41
0.5000
 70
0
  0
VERTEX
  8
0
 10
0.0000
 20
-0.2500
 30
0.0000
 42
1.0000
  0
VERTEX
  8
0
 10
0.0000
 20
0.2500
 30
0.0000
 42
1.0000
  0
VERTEX
  8
0
 10
0.0000
 20
-0.2500
 30
0.0000
  0
SEQEND
  8
0
  0
ENDBLK
  8
0
  0
BLOCK
  8
0
  2
ANNULUSV
 70
64
 10
0.0000
 20
0.0000
 30
0.0000
  3
ANNULUSV
  0
POLYLINE
  8
0
 66
1
 10
0.0000
 20
0.0000
 30
0.0000
 40
0.5000
 41
0.5000
 70
0
  0
VERTEX
  8
0
 10
0.0000
 20
-0.2500
 30
0.0000
 42
1.0000
  0
VERTEX
  8
0
 10
0.0000
 20
0.2500
 30
0.0000
 42
1.0000
  0
VERTEX
  8
0
 10
0.0000
 20
-0.2500
 30
0.0000
  0
SEQEND
  8
0
  0
ENDBLK
  8
0
  0
BLOCK
  8
0
  2
THERMALV
 70
64
 10
0.0000
 20
0.0000
 30
0.0000
  3
THERMALV
  0
POLYLINE
  8
0
 66
1
 10
0.0000
 20
0.0000
 30
0.0000
 40
0.1000
 41
0.1000
 70
0
  0
VERTEX
  8
0
 10
-0.2379
 20
0.4500
 30
0.0000
  0
VERTEX
  8
0
 10
0.2379
 20
0.4500
 30
0.0000
  0
SEQEND
  8
0
  0
POLYLINE
  8
0
 66
1
 10
0.0000
 20
0.0000
 30
0.0000
 40
0.0500
 41
0.0500
 70
0
  0
VERTEX
  8
0
 10
0.2379
 20
0.4250
 30
0.0000
 42
1.0000
  0
VERTEX
  8
0
 10
0.2379
 20
0.4750
 30
0.0000
  0
SEQEND
  8
0
  0
POLYLINE
  8
0
 66
1
 10
0.0000
 20
0.0000
 30
0.0000
 40
0.0500
 41
0.0500
 70
0
  0
VERTEX
  8
0
 10
-0.2379
 20
0.4750
 30
0.0000
 42
1.0000
  0
VERTEX
  8
0
 10
-0.2379
 20
0.4250
 30
0.0000
  0
SEQEND
  8
0
  0
POLYLINE
  8
0
 66
1
 10
0.0000
 20
0.0000
 30
0.0000
 40
0.1000
 41
0.1000
 70
0
  0
VERTEX
  8
0
 10
0.4500
 20
0.2379
 30
0.0000
  0
VERTEX
  8
0
 10
0.4500
 20
-0.2379
 30
0.0000
  0
SEQEND
  8
0
  0
POLYLINE
  8
0
 66
1
 10
0.0000
 20
0.0000
 30
0.0000
 40
0.0500
 41
0.0500
 70
0
  0
VERTEX
  8
0
 10
0.4250
 20
-0.2379
 30
0.0000
 42
1.0000
  0
VERTEX
  8
0
 10
0.4750
 20
-0.2379
 30
0.0000
  0
SEQEND
  8
0
  0
POLYLINE
  8
0
 66
1
 10
0.0000
 20
0.0000
 30
0.0000
 40
0.0500
 41
0.0500
 70
0
  0
VERTEX
  8
0
 10
0.4750
 20
0.2379
 30
0.0000
 42
1.0000
  0
VERTEX
  8
0
 10
0.4250
 20
0.2379
 30
0.0000
  0
SEQEND
  8
0
  0
POLYLINE
  8
0
 66
1
 10
0.0000
 20
0.0000
 30
0.0000
 40
0.1000
 41
0.1000
 70
0
  0
VERTEX
  8
0
 10
0.2379
 20
-0.4500
 30
0.0000
  0
VERTEX
  8
0
 10
-0.2379
 20
-0.4500
 30
0.0000
  0
SEQEND
  8
0
  0
POLYLINE
  8
0
 66
1
 10
0.0000
 20
0.0000
 30
0.0000
 40
0.0500
 41
0.0500
 70
0
  0
VERTEX
  8
0
 10
-0.2379
 20
-0.4250
 30
0.0000
 42
1.0000
  0
VERTEX
  8
0
 10
-0.2379
 20
-0.4750
 30
0.0000
  0
SEQEND
  8
0
  0
POLYLINE
  8
0
 66
1
 10
0.0000
 20
0.0000
 30
0.0000
 40
0.0500
 41
0.0500
 70
0
  0
VERTEX
  8
0
 10
0.2379
 20
-0.4750
 30
0.0000
 42
1.0000
  0
VERTEX
  8
0
 10
0.2379
 20
-0.4250
 30
0.0000
  0
SEQEND
  8
0
  0
POLYLINE
  8
0
 66
1
 10
0.0000
 20
0.0000
 30
0.0000
 40
0.1000
 41
0.1000
 70
0
  0
VERTEX
  8
0
 10
-0.4500
 20
-0.2379
 30
0.0000
  0
VERTEX
  8
0
 10
-0.4500
 20
0.2379
 30
0.0000
  0
SEQEND
  8
0
  0
POLYLINE
  8
0
 66
1
 10
0.0000
 20
0.0000
 30
0.0000
 40
0.0500
 41
0.0500
 70
0
  0
VERTEX
  8
0
 10
-0.4250
 20
0.2379
 30
0.0000
 42
1.0000
  0
VERTEX
  8
0
 10
-0.4750
 20
0.2379
 30
0.0000
  0
SEQEND
  8
0
  0
POLYLINE
  8
0
 66
1
 10
0.0000
 20
0.0000
 30
0.0000
 40
0.0500
 41
0.0500
 70
0
  0
VERTEX
  8
0
 10
-0.4750
 20
-0.2379
 30
0.0000
 42
1.0000
  0
VERTEX
  8
0
 10
-0.4250
 20
-0.2379
 30
0.0000
  0
SEQEND
  8
0
  0
ENDBLK
  8
0
  0
ENDSEC
  0
SECTION
  2
ENTITIES
  0
CIRCLE
  8
20
 10
29.2100
 20
72.3900
 30
0.0000
 40
0.3000
  0
CIRCLE
  8
20
 10
29.2100
 20
69.8500
 30
0.0000
 40
0.3000
  0
CIRCLE
  8
20
 10
29.2100
 20
67.3100
 30
0.0000
 40
0.3000
  0
CIRCLE
  8
20
 10
29.2100
 20
64.7700
 30
0.0000
 40
0.3000
  0
CIRCLE
  8
20
 10
29.2100
 20
62.2300
 30
0.0000
 40
0.3000
  0
CIRCLE
  8
20
 10
29.2100
 20
59.6900
 30
0.0000
 40
0.3000
  0
CIRCLE
  8
20
 10
29.2100
 20
57.1500
 30
0.0000
 40
0.3000
  0
CIRCLE
  8
20
 10
29.2100
 20
54.6100
 30
0.0000
 40
0.3000
  0
CIRCLE
  8
20
 10
29.2100
 20
52.0700
 30
0.0000
 40
0.3000
  0
CIRCLE
  8
20
 10
29.2100
 20
49.5300
 30
0.0000
 40
0.3000
  0
CIRCLE
  8
20
 10
29.2100
 20
46.9900
 30
0.0000
 40
0.3000
  0
CIRCLE
  8
20
 10
29.2100
 20
44.4500
 30
0.0000
 40
0.3000
  0
CIRCLE
  8
20
 10
29.2100
 20
41.9100
 30
0.0000
 40
0.3000
  0
CIRCLE
  8
20
 10
29.2100
 20
39.3700
 30
0.0000
 40
0.3000
  0
CIRCLE
  8
20
 10
6.3500
 20
64.7700
 30
0.0000
 40
0.3000
  0
CIRCLE
  8
20
 10
6.3500
 20
62.2300
 30
0.0000
 40
0.3000
  0
CIRCLE
  8
20
 10
6.3500
 20
59.6900
 30
0.0000
 40
0.3000
  0
CIRCLE
  8
20
 10
6.3500
 20
57.1500
 30
0.0000
 40
0.3000
  0
CIRCLE
  8
20
 10
6.3500
 20
54.6100
 30
0.0000
 40
0.3000
  0
CIRCLE
  8
20
 10
6.3500
 20
52.0700
 30
0.0000
 40
0.3000
  0
CIRCLE
  8
20
 10
6.3500
 20
49.5300
 30
0.0000
 40
0.3000
  0
CIRCLE
  8
20
 10
6.3500
 20
46.9900
 30
0.0000
 40
0.3000
  0
CIRCLE
  8
20
 10
6.3500
 20
44.4500
 30
0.0000
 40
0.3000
  0
CIRCLE
  8
20
 10
6.3500
 20
41.9100
 30
0.0000
 40
0.3000
  0
CIRCLE
  8
20
 10
6.3500
 20
39.3700
 30
0.0000
 40
0.3000
  0
CIRCLE
  8
20
 10
6.3500
 20
36.8300
 30
0.0000
 40
0.3000
  0
CIRCLE
  8
20
 10
6.3500
 20
34.2900
 30
0.0000
 40
0.3000
  0
CIRCLE
  8
20
 10
6.3500
 20
31.7500
 30
0.0000
 40
0.3000
  0
CIRCLE
  8
20
 10
6.3500
 20
29.2100
 30
0.0000
 40
0.3000
  0
CIRCLE
  8
20
 10
6.3500
 20
67.3100
 30
0.0000
 40
0.3000
  0
CIRCLE
  8
20
 10
8.8900
 20
7.6200
 30
0.0000
 40
0.5000
  0
CIRCLE
  8
20
 10
13.9700
 20
7.6200
 30
0.0000
 40
0.5000
  0
CIRCLE
  8
20
 10
25.4000
 20
30.4800
 30
0.0000
 40
0.3000
  0
CIRCLE
  8
20
 10
25.4000
 20
34.2900
 30
0.0000
 40
0.3000
  0
CIRCLE
  8
20
 10
8.8900
 20
15.2400
 30
0.0000
 40
0.5000
  0
CIRCLE
  8
20
 10
13.9700
 20
15.2400
 30
0.0000
 40
0.5000
  0
CIRCLE
  8
20
 10
22.2250
 20
34.2900
 30
0.0000
 40
0.3000
  0
CIRCLE
  8
20
 10
29.2100
 20
92.7100
 30
0.0000
 40
0.3000
  0
CIRCLE
  8
20
 10
29.2100
 20
95.2500
 30
0.0000
 40
0.3000
  0
CIRCLE
  8
20
 10
29.2100
 20
97.7900
 30
0.0000
 40
0.3000
  0
CIRCLE
  8
20
 10
29.2100
 20
100.3300
 30
0.0000
 40
0.3000
  0
CIRCLE
  8
20
 10
29.2100
 20
104.7750
 30
0.0000
 40
0.3000
  0
CIRCLE
  8
20
 10
5.7150
 20
104.7750
 30
0.0000
 40
0.3000
  0
CIRCLE
  8
20
 10
5.0800
 20
109.2200
 30
0.0000
 40
0.3000
  0
CIRCLE
  8
20
 10
5.0800
 20
115.5700
 30
0.0000
 40
0.3000
  0
CIRCLE
  8
20
 10
5.0800
 20
121.9200
 30
0.0000
 40
0.3000
  0
CIRCLE
  8
20
 10
15.2400
 20
34.2900
 30
0.0000
 40
0.3000
  0
CIRCLE
  8
20
 10
15.2400
 20
26.6700
 30
0.0000
 40
0.3000
  0
CIRCLE
  8
20
 10
20.9550
 20
8.2550
 30
0.0000
 40
0.3000
  0
CIRCLE
  8
20
 10
26.6700
 20
8.2550
 30
0.0000
 40
0.3000
  0
CIRCLE
  8
20
 10
23.4950
 20
41.9100
 30
0.0000
 40
0.3000
  0
CIRCLE
  8
20
 10
25.4000
 20
38.1000
 30
0.0000
 40
0.3000
  0
CIRCLE
  8
20
 10
26.0350
 20
46.3550
 30
0.0000
 40
0.3000
  0
CIRCLE
  8
20
 10
29.2100
 20
90.1700
 30
0.0000
 40
0.3000
  0
CIRCLE
  8
20
 10
29.2100
 20
87.6300
 30
0.0000
 40
0.3000
  0
CIRCLE
  8
20
 10
29.2100
 20
85.0900
 30
0.0000
 40
0.3000
  0
CIRCLE
  8
20
 10
29.2100
 20
82.5500
 30
0.0000
 40
0.3000
  0
POLYLINE
  8
16
 66
1
 10
0.0000
 20
0.0000
 30
0.0000
 40
0.1000
 41
0.1000
 70
0
  0
VERTEX
  8
16
 10
0.0000
 20
1.9050
 30
0.0000
  0
VERTEX
  8
16
 10
0.0000
 20
24.1300
 30
0.0000
  0
SEQEND
  8
0
  0
POLYLINE
  8
16
 66
1
 10
0.0000
 20
0.0000
 30
0.0000
 40
0.0500
 41
0.0500
 70
0
  0
VERTEX
  8
16
 10
0.0250
 20
24.1300
 30
0.0000
 42
1.0000
  0
VERTEX
  8
16
 10
-0.0250
 20
24.1300
 30
0.0000
  0
SEQEND
  8
0
  0
POLYLINE
  8
16
 66
1
 10
0.0000
 20
0.0000
 30
0.0000
 40
0.0500
 41
0.0500
 70
0
  0
VERTEX
  8
16
 10
-0.0250
 20
1.9050
 30
0.0000
 42
1.0000
  0
VERTEX
  8
16
 10
0.0250
 20
1.9050
 30
0.0000
  0
SEQEND
  8
0
  0
POLYLINE
  8
16
 66
1
 10
0.0000
 20
0.0000
 30
0.0000
 40
0.1000
 41
0.1000
 70
0
  0
VERTEX
  8
16
 10
0.0000
 20
24.1300
 30
0.0000
  0
VERTEX
  8
16
 10
1.2700
 20
27.3050
 30
0.0000
  0
SEQEND
  8
0
  0
POLYLINE
  8
16
 66
1
 10
0.0000
 20
0.0000
 30
0.0000
 40
0.0500
 41
0.0500
 70
0
  0
VERTEX
  8
16
 10
1.2932
 20
27.2957
 30
0.0000
 42
1.0000
  0
VERTEX
  8
16
 10
1.2468
 20
27.3143
 30
0.0000
  0
SEQEND
  8
0
  0
POLYLINE
  8
16
 66
1
 10
0.0000
 20
0.0000
 30
0.0000
 40
0.0500
 41
0.0500
 70
0
  0
VERTEX
  8
16
 10
-0.0232
 20
24.1393
 30
0.0000
 42
1.0000
  0
VERTEX
  8
16
 10
0.0232
 20
24.1207
 30
0.0000
  0
SEQEND
  8
0
  0
POLYLINE
  8
16
 66
1
 10
0.0000
 20
0.0000
 30
0.0000
 40
0.1000
 41
0.1000
 70
0
  0
VERTEX
  8
16
 10
1.2700
 20
27.3050
 30
0.0000
  0
VERTEX
  8
16
 10
1.2700
 20
129.5400
 30
0.0000
  0
SEQEND
  8
0
  0
POLYLINE
  8
16
 66
1
 10
0.0000
 20
0.0000
 30
0.0000
 40
0.0500
 41
0.0500
 70
0
  0
VERTEX
  8
16
 10
1.2950
 20
129.5400
 30
0.0000
 42
1.0000
  0
VERTEX
  8
16
 10
1.2450
 20
129.5400
 30
0.0000
  0
SEQEND
  8
0
  0
POLYLINE
  8
16
 66
1
 10
0.0000
 20
0.0000
 30
0.0000
 40
0.0500
 41
0.0500
 70
0
  0
VERTEX
  8
16
 10
1.2450
 20
27.3050
 30
0.0000
 42
1.0000
  0
VERTEX
  8
16
 10
1.2950
 20
27.3050
 30
0.0000
  0
SEQEND
  8
0
  0
POLYLINE
  8
16
 66
1
 10
0.0000
 20
0.0000
 30
0.0000
 40
0.1000
 41
0.1000
 70
0
  0
VERTEX
  8
16
 10
34.2900
 20
129.5400
 30
0.0000
  0
VERTEX
  8
16
 10
34.2900
 20
36.8300
 30
0.0000
  0
SEQEND
  8
0
  0
POLYLINE
  8
16
 66
1
 10
0.0000
 20
0.0000
 30
0.0000
 40
0.0500
 41
0.0500
 70
0
  0
VERTEX
  8
16
 10
34.2650
 20
36.8300
 30
0.0000
 42
1.0000
  0
VERTEX
  8
16
 10
34.3150
 20
36.8300
 30
0.0000
  0
SEQEND
  8
0
  0
POLYLINE
  8
16
 66
1
 10
0.0000
 20
0.0000
 30
0.0000
 40
0.0500
 41
0.0500
 70
0
  0
VERTEX
  8
16
 10
34.3150
 20
129.5400
 30
0.0000
 42
1.0000
  0
VERTEX
  8
16
 10
34.2650
 20
129.5400
 30
0.0000
  0
SEQEND
  8
0
  0
POLYLINE
  8
16
 66
1
 10
0.0000
 20
0.0000
 30
0.0000
 40
0.1000
 41
0.1000
 70
0
  0
VERTEX
  8
16
 10
34.2900
 20
36.8300
 30
0.0000
  0
VERTEX
  8
16
 10
28.5750
 20
36.8300
 30
0.0000
  0
SEQEND
  8
0
  0
POLYLINE
  8
16
 66
1
 10
0.0000
 20
0.0000
 30
0.0000
 40
0.0500
 41
0.0500
 70
0
  0
VERTEX
  8
16
 10
28.5750
 20
36.8550
 30
0.0000
 42
1.0000
  0
VERTEX
  8
16
 10
28.5750
 20
36.8050
 30
0.0000
  0
SEQEND
  8
0
  0
POLYLINE
  8
16
 66
1
 10
0.0000
 20
0.0000
 30
0.0000
 40
0.0500
 41
0.0500
 70
0
  0
VERTEX
  8
16
 10
34.2900
 20
36.8050
 30
0.0000
 42
1.0000
  0
VERTEX
  8
16
 10
34.2900
 20
36.8550
 30
0.0000
  0
SEQEND
  8
0
  0
POLYLINE
  8
16
 66
1
 10
0.0000
 20
0.0000
 30
0.0000
 40
0.1000
 41
0.1000
 70
0
  0
VERTEX
  8
16
 10
28.5750
 20
36.8300
 30
0.0000
  0
VERTEX
  8
16
 10
28.5750
 20
27.9400
 30
0.0000
  0
SEQEND
  8
0
  0
POLYLINE
  8
16
 66
1
 10
0.0000
 20
0.0000
 30
0.0000
 40
0.0500
 41
0.0500
 70
0
  0
VERTEX
  8
16
 10
28.5500
 20
27.9400
 30
0.0000
 42
1.0000
  0
VERTEX
  8
16
 10
28.6000
 20
27.9400
 30
0.0000
  0
SEQEND
  8
0
  0
POLYLINE
  8
16
 66
1
 10
0.0000
 20
0.0000
 30
0.0000
 40
0.0500
 41
0.0500
 70
0
  0
VERTEX
  8
16
 10
28.6000
 20
36.8300
 30
0.0000
 42
1.0000
  0
VERTEX
  8
16
 10
28.5500
 20
36.8300
 30
0.0000
  0
SEQEND
  8
0
  0
POLYLINE
  8
16
 66
1
 10
0.0000
 20
0.0000
 30
0.0000
 40
0.1000
 41
0.1000
 70
0
  0
VERTEX
  8
16
 10
34.2900
 20
27.9400
 30
0.0000
  0
VERTEX
  8
16
 10
35.5600
 20
24.1300
 30
0.0000
  0
SEQEND
  8
0
  0
POLYLINE
  8
16
 66
1
 10
0.0000
 20
0.0000
 30
0.0000
 40
0.0500
 41
0.0500
 70
0
  0
VERTEX
  8
16
 10
35.5363
 20
24.1221
 30
0.0000
 42
1.0000
  0
VERTEX
  8
16
 10
35.5837
 20
24.1379
 30
0.0000
  0
SEQEND
  8
0
  0
POLYLINE
  8
16
 66
1
 10
0.0000
 20
0.0000
 30
0.0000
 40
0.0500
 41
0.0500
 70
0
  0
VERTEX
  8
16
 10
34.3137
 20
27.9479
 30
0.0000
 42
1.0000
  0
VERTEX
  8
16
 10
34.2663
 20
27.9321
 30
0.0000
  0
SEQEND
  8
0
  0
POLYLINE
  8
16
 66
1
 10
0.0000
 20
0.0000
 30
0.0000
 40
0.0500
 41
0.0500
 70
0
  0
VERTEX
  8
16
 10
34.2900
 20
129.5400
 30
0.0000
 42
1.0000
  0
VERTEX
  8
16
 10
1.2700
 20
129.5400
 30
0.0000
  0
SEQEND
  8
0
  0
POLYLINE
  8
16
 66
1
 10
0.0000
 20
0.0000
 30
0.0000
 40
0.0250
 41
0.0250
 70
0
  0
VERTEX
  8
16
 10
34.2775
 20
129.5400
 30
0.0000
 42
1.0000
  0
VERTEX
  8
16
 10
34.3025
 20
129.5400
 30
0.0000
  0
SEQEND
  8
0
  0
POLYLINE
  8
16
 66
1
 10
0.0000
 20
0.0000
 30
0.0000
 40
0.0250
 41
0.0250
 70
0
  0
VERTEX
  8
16
 10
1.2575
 20
129.5400
 30
0.0000
 42
1.0000
  0
VERTEX
  8
16
 10
1.2825
 20
129.5400
 30
0.0000
  0
SEQEND
  8
0
  0
POLYLINE
  8
16
 66
1
 10
0.0000
 20
0.0000
 30
0.0000
 40
0.0500
 41
0.0500
 70
0
  0
VERTEX
  8
16
 10
0.0000
 20
1.9050
 30
0.0000
  0
VERTEX
  8
16
 10
35.5600
 20
1.9050
 30
0.0000
  0
SEQEND
  8
0
  0
POLYLINE
  8
16
 66
1
 10
0.0000
 20
0.0000
 30
0.0000
 40
0.0250
 41
0.0250
 70
0
  0
VERTEX
  8
16
 10
35.5600
 20
1.8925
 30
0.0000
 42
1.0000
  0
VERTEX
  8
16
 10
35.5600
 20
1.9175
 30
0.0000
  0
SEQEND
  8
0
  0
POLYLINE
  8
16
 66
1
 10
0.0000
 20
0.0000
 30
0.0000
 40
0.0250
 41
0.0250
 70
0
  0
VERTEX
  8
16
 10
0.0000
 20
1.9175
 30
0.0000
 42
1.0000
  0
VERTEX
  8
16
 10
0.0000
 20
1.8925
 30
0.0000
  0
SEQEND
  8
0
  0
POLYLINE
  8
16
 66
1
 10
0.0000
 20
0.0000
 30
0.0000
 40
0.1200
 41
0.1200
 70
0
  0
VERTEX
  8
16
 10
34.2900
 20
27.9400
 30
0.0000
  0
VERTEX
  8
16
 10
28.5750
 20
27.9400
 30
0.0000
  0
SEQEND
  8
0
  0
POLYLINE
  8
16
 66
1
 10
0.0000
 20
0.0000
 30
0.0000
 40
0.0600
 41
0.0600
 70
0
  0
VERTEX
  8
16
 10
28.5750
 20
27.9700
 30
0.0000
 42
1.0000
  0
VERTEX
  8
16
 10
28.5750
 20
27.9100
 30
0.0000
  0
SEQEND
  8
0
  0
POLYLINE
  8
16
 66
1
 10
0.0000
 20
0.0000
 30
0.0000
 40
0.0600
 41
0.0600
 70
0
  0
VERTEX
  8
16
 10
34.2900
 20
27.9100
 30
0.0000
 42
1.0000
  0
VERTEX
  8
16
 10
34.2900
 20
27.9700
 30
0.0000
  0
SEQEND
  8
0
  0
POLYLINE
  8
16
 66
1
 10
0.0000
 20
0.0000
 30
0.0000
 40
0.1000
 41
0.1000
 70
0
  0
VERTEX
  8
16
 10
35.5600
 20
24.1300
 30
0.0000
  0
VERTEX
  8
16
 10
35.5600
 20
1.9050
 30
0.0000
  0
SEQEND
  8
0
  0
POLYLINE
  8
16
 66
1
 10
0.0000
 20
0.0000
 30
0.0000
 40
0.0500
 41
0.0500
 70
0
  0
VERTEX
  8
16
 10
35.5350
 20
1.9050
 30
0.0000
 42
1.0000
  0
VERTEX
  8
16
 10
35.5850
 20
1.9050
 30
0.0000
  0
SEQEND
  8
0
  0
POLYLINE
  8
16
 66
1
 10
0.0000
 20
0.0000
 30
0.0000
 40
0.0500
 41
0.0500
 70
0
  0
VERTEX
  8
16
 10
35.5850
 20
24.1300
 30
0.0000
 42
1.0000
  0
VERTEX
  8
16
 10
35.5350
 20
24.1300
 30
0.0000
  0
SEQEND
  8
0
  0
POLYLINE
  8
16
 66
1
 10
0.0000
 20
0.0000
 30
0.0000
 40
1.9304
 41
1.9304
 70
0
  0
VERTEX
  8
16
 10
28.5750
 20
62.2300
 30
0.0000
  0
VERTEX
  8
16
 10
29.8450
 20
62.2300
 30
0.0000
  0
SEQEND
  8
0
  0
POLYLINE
  8
16
 66
1
 10
0.0000
 20
0.0000
 30
0.0000
 40
0.9652
 41
0.9652
 70
0
  0
VERTEX
  8
16
 10
29.8450
 20
61.7474
 30
0.0000
 42
1.0000
  0
VERTEX
  8
16
 10
29.8450
 20
62.7126
 30
0.0000
  0
SEQEND
  8
0
  0
POLYLINE
  8
16
 66
1
 10
0.0000
 20
0.0000
 30
0.0000
 40
0.9652
 41
0.9652
 70
0
  0
VERTEX
  8
16
 10
28.5750
 20
62.7126
 30
0.0000
 42
1.0000
  0
VERTEX
  8
16
 10
28.5750
 20
61.7474
 30
0.0000
  0
SEQEND
  8
0
  0
POLYLINE
  8
16
 66
1
 10
0.0000
 20
0.0000
 30
0.0000
 40
1.6764
 41
1.6764
 70
0
  0
VERTEX
  8
16
 10
30.4800
 20
104.7750
 30
0.0000
  0
VERTEX
  8
16
 10
28.5750
 20
104.7750
 30
0.0000
  0
SEQEND
  8
0
  0
POLYLINE
  8
16
 66
1
 10
0.0000
 20
0.0000
 30
0.0000
 40
0.8382
 41
0.8382
 70
0
  0
VERTEX
  8
16
 10
28.5750
 20
105.1941
 30
0.0000
 42
1.0000
  0
VERTEX
  8
16
 10
28.5750
 20
104.3559
 30
0.0000
  0
SEQEND
  8
0
  0
POLYLINE
  8
16
 66
1
 10
0.0000
 20
0.0000
 30
0.0000
 40
0.8382
 41
0.8382
 70
0
  0
VERTEX
  8
16
 10
30.4800
 20
104.3559
 30
0.0000
 42
1.0000
  0
VERTEX
  8
16
 10
30.4800
 20
105.1941
 30
0.0000
  0
SEQEND
  8
0
  0
POLYLINE
  8
16
 66
1
 10
0.0000
 20
0.0000
 30
0.0000
 40
0.8128
 41
0.8128
 70
0
  0
VERTEX
  8
16
 10
28.5750
 20
100.9650
 30
0.0000
  0
VERTEX
  8
16
 10
28.5750
 20
104.7750
 30
0.0000
  0
SEQEND
  8
0
  0
POLYLINE
  8
16
 66
1
 10
0.0000
 20
0.0000
 30
0.0000
 40
0.4064
 41
0.4064
 70
0
  0
VERTEX
  8
16
 10
28.7782
 20
104.7750
 30
0.0000
 42
1.0000
  0
VERTEX
  8
16
 10
28.3718
 20
104.7750
 30
0.0000
  0
SEQEND
  8
0
  0
POLYLINE
  8
16
 66
1
 10
0.0000
 20
0.0000
 30
0.0000
 40
0.4064
 41
0.4064
 70
0
  0
VERTEX
  8
16
 10
28.3718
 20
100.9650
 30
0.0000
 42
1.0000
  0
VERTEX
  8
16
 10
28.7782
 20
100.9650
 30
0.0000
  0
SEQEND
  8
0
  0
POLYLINE
  8
16
 66
1
 10
0.0000
 20
0.0000
 30
0.0000
 40
1.6764
 41
1.6764
 70
0
  0
VERTEX
  8
16
 10
30.4800
 20
100.3300
 30
0.0000
  0
VERTEX
  8
16
 10
28.5750
 20
100.3300
 30
0.0000
  0
SEQEND
  8
0
  0
POLYLINE
  8
16
 66
1
 10
0.0000
 20
0.0000
 30
0.0000
 40
0.8382
 41
0.8382
 70
0
  0
VERTEX
  8
16
 10
28.5750
 20
100.7491
 30
0.0000
 42
1.0000
  0
VERTEX
  8
16
 10
28.5750
 20
99.9109
 30
0.0000
  0
SEQEND
  8
0
  0
POLYLINE
  8
16
 66
1
 10
0.0000
 20
0.0000
 30
0.0000
 40
0.8382
 41
0.8382
 70
0
  0
VERTEX
  8
16
 10
30.4800
 20
99.9109
 30
0.0000
 42
1.0000
  0
VERTEX
  8
16
 10
30.4800
 20
100.7491
 30
0.0000
  0
SEQEND
  8
0
  0
POLYLINE
  8
16
 66
1
 10
0.0000
 20
0.0000
 30
0.0000
 40
1.9304
 41
1.9304
 70
0
  0
VERTEX
  8
16
 10
5.7150
 20
67.3100
 30
0.0000
  0
VERTEX
  8
16
 10
6.9850
 20
67.3100
 30
0.0000
  0
SEQEND
  8
0
  0
POLYLINE
  8
16
 66
1
 10
0.0000
 20
0.0000
 30
0.0000
 40
0.9652
 41
0.9652
 70
0
  0
VERTEX
  8
16
 10
6.9850
 20
66.8274
 30
0.0000
 42
1.0000
  0
VERTEX
  8
16
 10
6.9850
 20
67.7926
 30
0.0000
  0
SEQEND
  8
0
  0
POLYLINE
  8
16
 66
1
 10
0.0000
 20
0.0000
 30
0.0000
 40
0.9652
 41
0.9652
 70
0
  0
VERTEX
  8
16
 10
5.7150
 20
67.7926
 30
0.0000
 42
1.0000
  0
VERTEX
  8
16
 10
5.7150
 20
66.8274
 30
0.0000
  0
SEQEND
  8
0
  0
POLYLINE
  8
16
 66
1
 10
0.0000
 20
0.0000
 30
0.0000
 40
1.9304
 41
1.9304
 70
0
  0
VERTEX
  8
16
 10
5.7150
 20
64.7700
 30
0.0000
  0
VERTEX
  8
16
 10
6.9850
 20
64.7700
 30
0.0000
  0
SEQEND
  8
0
  0
POLYLINE
  8
16
 66
1
 10
0.0000
 20
0.0000
 30
0.0000
 40
0.9652
 41
0.9652
 70
0
  0
VERTEX
  8
16
 10
6.9850
 20
64.2874
 30
0.0000
 42
1.0000
  0
VERTEX
  8
16
 10
6.9850
 20
65.2526
 30
0.0000
  0
SEQEND
  8
0
  0
POLYLINE
  8
16
 66
1
 10
0.0000
 20
0.0000
 30
0.0000
 40
0.9652
 41
0.9652
 70
0
  0
VERTEX
  8
16
 10
5.7150
 20
65.2526
 30
0.0000
 42
1.0000
  0
VERTEX
  8
16
 10
5.7150
 20
64.2874
 30
0.0000
  0
SEQEND
  8
0
  0
POLYLINE
  8
16
 66
1
 10
0.0000
 20
0.0000
 30
0.0000
 40
0.8128
 41
0.8128
 70
0
  0
VERTEX
  8
16
 10
6.9850
 20
64.7700
 30
0.0000
  0
VERTEX
  8
16
 10
8.8900
 20
64.7700
 30
0.0000
  0
SEQEND
  8
0
  0
POLYLINE
  8
16
 66
1
 10
0.0000
 20
0.0000
 30
0.0000
 40
0.4064
 41
0.4064
 70
0
  0
VERTEX
  8
16
 10
8.8900
 20
64.5668
 30
0.0000
 42
1.0000
  0
VERTEX
  8
16
 10
8.8900
 20
64.9732
 30
0.0000
  0
SEQEND
  8
0
  0
POLYLINE
  8
16
 66
1
 10
0.0000
 20
0.0000
 30
0.0000
 40
0.4064
 41
0.4064
 70
0
  0
VERTEX
  8
16
 10
6.9850
 20
64.9732
 30
0.0000
 42
1.0000
  0
VERTEX
  8
16
 10
6.9850
 20
64.5668
 30
0.0000
  0
SEQEND
  8
0
  0
POLYLINE
  8
16
 66
1
 10
0.0000
 20
0.0000
 30
0.0000
 40
0.8128
 41
0.8128
 70
0
  0
VERTEX
  8
16
 10
8.8900
 20
64.7700
 30
0.0000
  0
VERTEX
  8
16
 10
8.8900
 20
115.5700
 30
0.0000
  0
SEQEND
  8
0
  0
POLYLINE
  8
16
 66
1
 10
0.0000
 20
0.0000
 30
0.0000
 40
0.4064
 41
0.4064
 70
0
  0
VERTEX
  8
16
 10
9.0932
 20
115.5700
 30
0.0000
 42
1.0000
  0
VERTEX
  8
16
 10
8.6868
 20
115.5700
 30
0.0000
  0
SEQEND
  8
0
  0
POLYLINE
  8
16
 66
1
 10
0.0000
 20
0.0000
 30
0.0000
 40
0.4064
 41
0.4064
 70
0
  0
VERTEX
  8
16
 10
8.6868
 20
64.7700
 30
0.0000
 42
1.0000
  0
VERTEX
  8
16
 10
9.0932
 20
64.7700
 30
0.0000
  0
SEQEND
  8
0
  0
POLYLINE
  8
16
 66
1
 10
0.0000
 20
0.0000
 30
0.0000
 40
1.6764
 41
1.6764
 70
0
  0
VERTEX
  8
16
 10
4.4450
 20
115.5700
 30
0.0000
  0
VERTEX
  8
16
 10
6.3500
 20
115.5700
 30
0.0000
  0
SEQEND
  8
0
  0
POLYLINE
  8
16
 66
1
 10
0.0000
 20
0.0000
 30
0.0000
 40
0.8382
 41
0.8382
 70
0
  0
VERTEX
  8
16
 10
6.3500
 20
115.1509
 30
0.0000
 42
1.0000
  0
VERTEX
  8
16
 10
6.3500
 20
115.9891
 30
0.0000
  0
SEQEND
  8
0
  0
POLYLINE
  8
16
 66
1
 10
0.0000
 20
0.0000
 30
0.0000
 40
0.8382
 41
0.8382
 70
0
  0
VERTEX
  8
16
 10
4.4450
 20
115.9891
 30
0.0000
 42
1.0000
  0
VERTEX
  8
16
 10
4.4450
 20
115.1509
 30
0.0000
  0
SEQEND
  8
0
  0
POLYLINE
  8
16
 66
1
 10
0.0000
 20
0.0000
 30
0.0000
 40
0.8128
 41
0.8128
 70
0
  0
VERTEX
  8
16
 10
8.8900
 20
115.5700
 30
0.0000
  0
VERTEX
  8
16
 10
6.3500
 20
115.5700
 30
0.0000
  0
SEQEND
  8
0
  0
POLYLINE
  8
16
 66
1
 10
0.0000
 20
0.0000
 30
0.0000
 40
0.4064
 41
0.4064
 70
0
  0
VERTEX
  8
16
 10
6.3500
 20
115.7732
 30
0.0000
 42
1.0000
  0
VERTEX
  8
16
 10
6.3500
 20
115.3668
 30
0.0000
  0
SEQEND
  8
0
  0
POLYLINE
  8
16
 66
1
 10
0.0000
 20
0.0000
 30
0.0000
 40
0.4064
 41
0.4064
 70
0
  0
VERTEX
  8
16
 10
8.8900
 20
115.3668
 30
0.0000
 42
1.0000
  0
VERTEX
  8
16
 10
8.8900
 20
115.7732
 30
0.0000
  0
SEQEND
  8
0
  0
POLYLINE
  8
16
 66
1
 10
0.0000
 20
0.0000
 30
0.0000
 40
1.9304
 41
1.9304
 70
0
  0
VERTEX
  8
16
 10
5.7150
 20
62.2300
 30
0.0000
  0
VERTEX
  8
16
 10
6.9850
 20
62.2300
 30
0.0000
  0
SEQEND
  8
0
  0
POLYLINE
  8
16
 66
1
 10
0.0000
 20
0.0000
 30
0.0000
 40
0.9652
 41
0.9652
 70
0
  0
VERTEX
  8
16
 10
6.9850
 20
61.7474
 30
0.0000
 42
1.0000
  0
VERTEX
  8
16
 10
6.9850
 20
62.7126
 30
0.0000
  0
SEQEND
  8
0
  0
POLYLINE
  8
16
 66
1
 10
0.0000
 20
0.0000
 30
0.0000
 40
0.9652
 41
0.9652
 70
0
  0
VERTEX
  8
16
 10
5.7150
 20
62.7126
 30
0.0000
 42
1.0000
  0
VERTEX
  8
16
 10
5.7150
 20
61.7474
 30
0.0000
  0
SEQEND
  8
0
  0
POLYLINE
  8
16
 66
1
 10
0.0000
 20
0.0000
 30
0.0000
 40
1.9304
 41
1.9304
 70
0
  0
VERTEX
  8
16
 10
5.7150
 20
59.6900
 30
0.0000
  0
VERTEX
  8
16
 10
6.9850
 20
59.6900
 30
0.0000
  0
SEQEND
  8
0
  0
POLYLINE
  8
16
 66
1
 10
0.0000
 20
0.0000
 30
0.0000
 40
0.9652
 41
0.9652
 70
0
  0
VERTEX
  8
16
 10
6.9850
 20
59.2074
 30
0.0000
 42
1.0000
  0
VERTEX
  8
16
 10
6.9850
 20
60.1726
 30
0.0000
  0
SEQEND
  8
0
  0
POLYLINE
  8
16
 66
1
 10
0.0000
 20
0.0000
 30
0.0000
 40
0.9652
 41
0.9652
 70
0
  0
VERTEX
  8
16
 10
5.7150
 20
60.1726
 30
0.0000
 42
1.0000
  0
VERTEX
  8
16
 10
5.7150
 20
59.2074
 30
0.0000
  0
SEQEND
  8
0
  0
POLYLINE
  8
16
 66
1
 10
0.0000
 20
0.0000
 30
0.0000
 40
1.9304
 41
1.9304
 70
0
  0
VERTEX
  8
16
 10
5.7150
 20
57.1500
 30
0.0000
  0
VERTEX
  8
16
 10
6.9850
 20
57.1500
 30
0.0000
  0
SEQEND
  8
0
  0
POLYLINE
  8
16
 66
1
 10
0.0000
 20
0.0000
 30
0.0000
 40
0.9652
 41
0.9652
 70
0
  0
VERTEX
  8
16
 10
6.9850
 20
56.6674
 30
0.0000
 42
1.0000
  0
VERTEX
  8
16
 10
6.9850
 20
57.6326
 30
0.0000
  0
SEQEND
  8
0
  0
POLYLINE
  8
16
 66
1
 10
0.0000
 20
0.0000
 30
0.0000
 40
0.9652
 41
0.9652
 70
0
  0
VERTEX
  8
16
 10
5.7150
 20
57.6326
 30
0.0000
 42
1.0000
  0
VERTEX
  8
16
 10
5.7150
 20
56.6674
 30
0.0000
  0
SEQEND
  8
0
  0
POLYLINE
  8
16
 66
1
 10
0.0000
 20
0.0000
 30
0.0000
 40
1.9304
 41
1.9304
 70
0
  0
VERTEX
  8
16
 10
5.7150
 20
54.6100
 30
0.0000
  0
VERTEX
  8
16
 10
6.9850
 20
54.6100
 30
0.0000
  0
SEQEND
  8
0
  0
POLYLINE
  8
16
 66
1
 10
0.0000
 20
0.0000
 30
0.0000
 40
0.9652
 41
0.9652
 70
0
  0
VERTEX
  8
16
 10
6.9850
 20
54.1274
 30
0.0000
 42
1.0000
  0
VERTEX
  8
16
 10
6.9850
 20
55.0926
 30
0.0000
  0
SEQEND
  8
0
  0
POLYLINE
  8
16
 66
1
 10
0.0000
 20
0.0000
 30
0.0000
 40
0.9652
 41
0.9652
 70
0
  0
VERTEX
  8
16
 10
5.7150
 20
55.0926
 30
0.0000
 42
1.0000
  0
VERTEX
  8
16
 10
5.7150
 20
54.1274
 30
0.0000
  0
SEQEND
  8
0
  0
POLYLINE
  8
16
 66
1
 10
0.0000
 20
0.0000
 30
0.0000
 40
1.9304
 41
1.9304
 70
0
  0
VERTEX
  8
16
 10
5.7150
 20
52.0700
 30
0.0000
  0
VERTEX
  8
16
 10
6.9850
 20
52.0700
 30
0.0000
  0
SEQEND
  8
0
  0
POLYLINE
  8
16
 66
1
 10
0.0000
 20
0.0000
 30
0.0000
 40
0.9652
 41
0.9652
 70
0
  0
VERTEX
  8
16
 10
6.9850
 20
51.5874
 30
0.0000
 42
1.0000
  0
VERTEX
  8
16
 10
6.9850
 20
52.5526
 30
0.0000
  0
SEQEND
  8
0
  0
POLYLINE
  8
16
 66
1
 10
0.0000
 20
0.0000
 30
0.0000
 40
0.9652
 41
0.9652
 70
0
  0
VERTEX
  8
16
 10
5.7150
 20
52.5526
 30
0.0000
 42
1.0000
  0
VERTEX
  8
16
 10
5.7150
 20
51.5874
 30
0.0000
  0
SEQEND
  8
0
  0
POLYLINE
  8
16
 66
1
 10
0.0000
 20
0.0000
 30
0.0000
 40
1.9304
 41
1.9304
 70
0
  0
VERTEX
  8
16
 10
5.7150
 20
49.5300
 30
0.0000
  0
VERTEX
  8
16
 10
6.9850
 20
49.5300
 30
0.0000
  0
SEQEND
  8
0
  0
POLYLINE
  8
16
 66
1
 10
0.0000
 20
0.0000
 30
0.0000
 40
0.9652
 41
0.9652
 70
0
  0
VERTEX
  8
16
 10
6.9850
 20
49.0474
 30
0.0000
 42
1.0000
  0
VERTEX
  8
16
 10
6.9850
 20
50.0126
 30
0.0000
  0
SEQEND
  8
0
  0
POLYLINE
  8
16
 66
1
 10
0.0000
 20
0.0000
 30
0.0000
 40
0.9652
 41
0.9652
 70
0
  0
VERTEX
  8
16
 10
5.7150
 20
50.0126
 30
0.0000
 42
1.0000
  0
VERTEX
  8
16
 10
5.7150
 20
49.0474
 30
0.0000
  0
SEQEND
  8
0
  0
POLYLINE
  8
16
 66
1
 10
0.0000
 20
0.0000
 30
0.0000
 40
1.9304
 41
1.9304
 70
0
  0
VERTEX
  8
16
 10
5.7150
 20
46.9900
 30
0.0000
  0
VERTEX
  8
16
 10
6.9850
 20
46.9900
 30
0.0000
  0
SEQEND
  8
0
  0
POLYLINE
  8
16
 66
1
 10
0.0000
 20
0.0000
 30
0.0000
 40
0.9652
 41
0.9652
 70
0
  0
VERTEX
  8
16
 10
6.9850
 20
46.5074
 30
0.0000
 42
1.0000
  0
VERTEX
  8
16
 10
6.9850
 20
47.4726
 30
0.0000
  0
SEQEND
  8
0
  0
POLYLINE
  8
16
 66
1
 10
0.0000
 20
0.0000
 30
0.0000
 40
0.9652
 41
0.9652
 70
0
  0
VERTEX
  8
16
 10
5.7150
 20
47.4726
 30
0.0000
 42
1.0000
  0
VERTEX
  8
16
 10
5.7150
 20
46.5074
 30
0.0000
  0
SEQEND
  8
0
  0
POLYLINE
  8
16
 66
1
 10
0.0000
 20
0.0000
 30
0.0000
 40
1.6764
 41
1.6764
 70
0
  0
VERTEX
  8
16
 10
30.4800
 20
97.7900
 30
0.0000
  0
VERTEX
  8
16
 10
28.5750
 20
97.7900
 30
0.0000
  0
SEQEND
  8
0
  0
POLYLINE
  8
16
 66
1
 10
0.0000
 20
0.0000
 30
0.0000
 40
0.8382
 41
0.8382
 70
0
  0
VERTEX
  8
16
 10
28.5750
 20
98.2091
 30
0.0000
 42
1.0000
  0
VERTEX
  8
16
 10
28.5750
 20
97.3709
 30
0.0000
  0
SEQEND
  8
0
  0
POLYLINE
  8
16
 66
1
 10
0.0000
 20
0.0000
 30
0.0000
 40
0.8382
 41
0.8382
 70
0
  0
VERTEX
  8
16
 10
30.4800
 20
97.3709
 30
0.0000
 42
1.0000
  0
VERTEX
  8
16
 10
30.4800
 20
98.2091
 30
0.0000
  0
SEQEND
  8
0
  0
POLYLINE
  8
16
 66
1
 10
0.0000
 20
0.0000
 30
0.0000
 40
0.8128
 41
0.8128
 70
0
  0
VERTEX
  8
16
 10
28.5750
 20
97.7900
 30
0.0000
  0
VERTEX
  8
16
 10
17.7800
 20
97.7900
 30
0.0000
  0
SEQEND
  8
0
  0
POLYLINE
  8
16
 66
1
 10
0.0000
 20
0.0000
 30
0.0000
 40
0.4064
 41
0.4064
 70
0
  0
VERTEX
  8
16
 10
17.7800
 20
97.9932
 30
0.0000
 42
1.0000
  0
VERTEX
  8
16
 10
17.7800
 20
97.5868
 30
0.0000
  0
SEQEND
  8
0
  0
POLYLINE
  8
16
 66
1
 10
0.0000
 20
0.0000
 30
0.0000
 40
0.4064
 41
0.4064
 70
0
  0
VERTEX
  8
16
 10
28.5750
 20
97.5868
 30
0.0000
 42
1.0000
  0
VERTEX
  8
16
 10
28.5750
 20
97.9932
 30
0.0000
  0
SEQEND
  8
0
  0
POLYLINE
  8
16
 66
1
 10
0.0000
 20
0.0000
 30
0.0000
 40
2.5400
 41
2.5400
 70
0
  0
VERTEX
  8
16
 10
13.9700
 20
16.5100
 30
0.0000
  0
VERTEX
  8
16
 10
13.9700
 20
14.6050
 30
0.0000
  0
SEQEND
  8
0
  0
POLYLINE
  8
16
 66
1
 10
0.0000
 20
0.0000
 30
0.0000
 40
1.2700
 41
1.2700
 70
0
  0
VERTEX
  8
16
 10
13.3350
 20
14.6050
 30
0.0000
 42
1.0000
  0
VERTEX
  8
16
 10
14.6050
 20
14.6050
 30
0.0000
  0
SEQEND
  8
0
  0
POLYLINE
  8
16
 66
1
 10
0.0000
 20
0.0000
 30
0.0000
 40
1.2700
 41
1.2700
 70
0
  0
VERTEX
  8
16
 10
14.6050
 20
16.5100
 30
0.0000
 42
1.0000
  0
VERTEX
  8
16
 10
13.3350
 20
16.5100
 30
0.0000
  0
SEQEND
  8
0
  0
POLYLINE
  8
16
 66
1
 10
0.0000
 20
0.0000
 30
0.0000
 40
1.9304
 41
1.9304
 70
0
  0
VERTEX
  8
16
 10
28.5750
 20
67.3100
 30
0.0000
  0
VERTEX
  8
16
 10
29.8450
 20
67.3100
 30
0.0000
  0
SEQEND
  8
0
  0
POLYLINE
  8
16
 66
1
 10
0.0000
 20
0.0000
 30
0.0000
 40
0.9652
 41
0.9652
 70
0
  0
VERTEX
  8
16
 10
29.8450
 20
66.8274
 30
0.0000
 42
1.0000
  0
VERTEX
  8
16
 10
29.8450
 20
67.7926
 30
0.0000
  0
SEQEND
  8
0
  0
POLYLINE
  8
16
 66
1
 10
0.0000
 20
0.0000
 30
0.0000
 40
0.9652
 41
0.9652
 70
0
  0
VERTEX
  8
16
 10
28.5750
 20
67.7926
 30
0.0000
 42
1.0000
  0
VERTEX
  8
16
 10
28.5750
 20
66.8274
 30
0.0000
  0
SEQEND
  8
0
  0
POLYLINE
  8
16
 66
1
 10
0.0000
 20
0.0000
 30
0.0000
 40
1.9304
 41
1.9304
 70
0
  0
VERTEX
  8
16
 10
28.5750
 20
64.7700
 30
0.0000
  0
VERTEX
  8
16
 10
29.8450
 20
64.7700
 30
0.0000
  0
SEQEND
  8
0
  0
POLYLINE
  8
16
 66
1
 10
0.0000
 20
0.0000
 30
0.0000
 40
0.9652
 41
0.9652
 70
0
  0
VERTEX
  8
16
 10
29.8450
 20
64.2874
 30
0.0000
 42
1.0000
  0
VERTEX
  8
16
 10
29.8450
 20
65.2526
 30
0.0000
  0
SEQEND
  8
0
  0
POLYLINE
  8
16
 66
1
 10
0.0000
 20
0.0000
 30
0.0000
 40
0.9652
 41
0.9652
 70
0
  0
VERTEX
  8
16
 10
28.5750
 20
65.2526
 30
0.0000
 42
1.0000
  0
VERTEX
  8
16
 10
28.5750
 20
64.2874
 30
0.0000
  0
SEQEND
  8
0
  0
POLYLINE
  8
16
 66
1
 10
0.0000
 20
0.0000
 30
0.0000
 40
1.9304
 41
1.9304
 70
0
  0
VERTEX
  8
16
 10
28.5750
 20
59.6900
 30
0.0000
  0
VERTEX
  8
16
 10
29.8450
 20
59.6900
 30
0.0000
  0
SEQEND
  8
0
  0
POLYLINE
  8
16
 66
1
 10
0.0000
 20
0.0000
 30
0.0000
 40
0.9652
 41
0.9652
 70
0
  0
VERTEX
  8
16
 10
29.8450
 20
59.2074
 30
0.0000
 42
1.0000
  0
VERTEX
  8
16
 10
29.8450
 20
60.1726
 30
0.0000
  0
SEQEND
  8
0
  0
POLYLINE
  8
16
 66
1
 10
0.0000
 20
0.0000
 30
0.0000
 40
0.9652
 41
0.9652
 70
0
  0
VERTEX
  8
16
 10
28.5750
 20
60.1726
 30
0.0000
 42
1.0000
  0
VERTEX
  8
16
 10
28.5750
 20
59.2074
 30
0.0000
  0
SEQEND
  8
0
  0
POLYLINE
  8
16
 66
1
 10
0.0000
 20
0.0000
 30
0.0000
 40
1.9304
 41
1.9304
 70
0
  0
VERTEX
  8
16
 10
28.5750
 20
57.1500
 30
0.0000
  0
VERTEX
  8
16
 10
29.8450
 20
57.1500
 30
0.0000
  0
SEQEND
  8
0
  0
POLYLINE
  8
16
 66
1
 10
0.0000
 20
0.0000
 30
0.0000
 40
0.9652
 41
0.9652
 70
0
  0
VERTEX
  8
16
 10
29.8450
 20
56.6674
 30
0.0000
 42
1.0000
  0
VERTEX
  8
16
 10
29.8450
 20
57.6326
 30
0.0000
  0
SEQEND
  8
0
  0
POLYLINE
  8
16
 66
1
 10
0.0000
 20
0.0000
 30
0.0000
 40
0.9652
 41
0.9652
 70
0
  0
VERTEX
  8
16
 10
28.5750
 20
57.6326
 30
0.0000
 42
1.0000
  0
VERTEX
  8
16
 10
28.5750
 20
56.6674
 30
0.0000
  0
SEQEND
  8
0
  0
POLYLINE
  8
16
 66
1
 10
0.0000
 20
0.0000
 30
0.0000
 40
1.9304
 41
1.9304
 70
0
  0
VERTEX
  8
16
 10
28.5750
 20
54.6100
 30
0.0000
  0
VERTEX
  8
16
 10
29.8450
 20
54.6100
 30
0.0000
  0
SEQEND
  8
0
  0
POLYLINE
  8
16
 66
1
 10
0.0000
 20
0.0000
 30
0.0000
 40
0.9652
 41
0.9652
 70
0
  0
VERTEX
  8
16
 10
29.8450
 20
54.1274
 30
0.0000
 42
1.0000
  0
VERTEX
  8
16
 10
29.8450
 20
55.0926
 30
0.0000
  0
SEQEND
  8
0
  0
POLYLINE
  8
16
 66
1
 10
0.0000
 20
0.0000
 30
0.0000
 40
0.9652
 41
0.9652
 70
0
  0
VERTEX
  8
16
 10
28.5750
 20
55.0926
 30
0.0000
 42
1.0000
  0
VERTEX
  8
16
 10
28.5750
 20
54.1274
 30
0.0000
  0
SEQEND
  8
0
  0
POLYLINE
  8
16
 66
1
 10
0.0000
 20
0.0000
 30
0.0000
 40
1.9304
 41
1.9304
 70
0
  0
VERTEX
  8
16
 10
28.5750
 20
52.0700
 30
0.0000
  0
VERTEX
  8
16
 10
29.8450
 20
52.0700
 30
0.0000
  0
SEQEND
  8
0
  0
POLYLINE
  8
16
 66
1
 10
0.0000
 20
0.0000
 30
0.0000
 40
0.9652
 41
0.9652
 70
0
  0
VERTEX
  8
16
 10
29.8450
 20
51.5874
 30
0.0000
 42
1.0000
  0
VERTEX
  8
16
 10
29.8450
 20
52.5526
 30
0.0000
  0
SEQEND
  8
0
  0
POLYLINE
  8
16
 66
1
 10
0.0000
 20
0.0000
 30
0.0000
 40
0.9652
 41
0.9652
 70
0
  0
VERTEX
  8
16
 10
28.5750
 20
52.5526
 30
0.0000
 42
1.0000
  0
VERTEX
  8
16
 10
28.5750
 20
51.5874
 30
0.0000
  0
SEQEND
  8
0
  0
POLYLINE
  8
16
 66
1
 10
0.0000
 20
0.0000
 30
0.0000
 40
1.9304
 41
1.9304
 70
0
  0
VERTEX
  8
16
 10
28.5750
 20
49.5300
 30
0.0000
  0
VERTEX
  8
16
 10
29.8450
 20
49.5300
 30
0.0000
  0
SEQEND
  8
0
  0
POLYLINE
  8
16
 66
1
 10
0.0000
 20
0.0000
 30
0.0000
 40
0.9652
 41
0.9652
 70
0
  0
VERTEX
  8
16
 10
29.8450
 20
49.0474
 30
0.0000
 42
1.0000
  0
VERTEX
  8
16
 10
29.8450
 20
50.0126
 30
0.0000
  0
SEQEND
  8
0
  0
POLYLINE
  8
16
 66
1
 10
0.0000
 20
0.0000
 30
0.0000
 40
0.9652
 41
0.9652
 70
0
  0
VERTEX
  8
16
 10
28.5750
 20
50.0126
 30
0.0000
 42
1.0000
  0
VERTEX
  8
16
 10
28.5750
 20
49.0474
 30
0.0000
  0
SEQEND
  8
0
  0
POLYLINE
  8
16
 66
1
 10
0.0000
 20
0.0000
 30
0.0000
 40
1.9304
 41
1.9304
 70
0
  0
VERTEX
  8
16
 10
28.5750
 20
46.9900
 30
0.0000
  0
VERTEX
  8
16
 10
29.8450
 20
46.9900
 30
0.0000
  0
SEQEND
  8
0
  0
POLYLINE
  8
16
 66
1
 10
0.0000
 20
0.0000
 30
0.0000
 40
0.9652
 41
0.9652
 70
0
  0
VERTEX
  8
16
 10
29.8450
 20
46.5074
 30
0.0000
 42
1.0000
  0
VERTEX
  8
16
 10
29.8450
 20
47.4726
 30
0.0000
  0
SEQEND
  8
0
  0
POLYLINE
  8
16
 66
1
 10
0.0000
 20
0.0000
 30
0.0000
 40
0.9652
 41
0.9652
 70
0
  0
VERTEX
  8
16
 10
28.5750
 20
47.4726
 30
0.0000
 42
1.0000
  0
VERTEX
  8
16
 10
28.5750
 20
46.5074
 30
0.0000
  0
SEQEND
  8
0
  0
POLYLINE
  8
16
 66
1
 10
0.0000
 20
0.0000
 30
0.0000
 40
1.9304
 41
1.9304
 70
0
  0
VERTEX
  8
16
 10
29.2100
 20
44.4500
 30
0.0000
  0
VERTEX
  8
16
 10
29.8450
 20
44.4500
 30
0.0000
  0
SEQEND
  8
0
  0
POLYLINE
  8
16
 66
1
 10
0.0000
 20
0.0000
 30
0.0000
 40
0.9652
 41
0.9652
 70
0
  0
VERTEX
  8
16
 10
29.8450
 20
43.9674
 30
0.0000
 42
1.0000
  0
VERTEX
  8
16
 10
29.8450
 20
44.9326
 30
0.0000
  0
SEQEND
  8
0
  0
POLYLINE
  8
16
 66
1
 10
0.0000
 20
0.0000
 30
0.0000
 40
0.9652
 41
0.9652
 70
0
  0
VERTEX
  8
16
 10
29.2100
 20
44.9326
 30
0.0000
 42
1.0000
  0
VERTEX
  8
16
 10
29.2100
 20
43.9674
 30
0.0000
  0
SEQEND
  8
0
  0
POLYLINE
  8
16
 66
1
 10
0.0000
 20
0.0000
 30
0.0000
 40
1.9304
 41
1.9304
 70
0
  0
VERTEX
  8
16
 10
28.5750
 20
41.9100
 30
0.0000
  0
VERTEX
  8
16
 10
29.8450
 20
41.9100
 30
0.0000
  0
SEQEND
  8
0
  0
POLYLINE
  8
16
 66
1
 10
0.0000
 20
0.0000
 30
0.0000
 40
0.9652
 41
0.9652
 70
0
  0
VERTEX
  8
16
 10
29.8450
 20
41.4274
 30
0.0000
 42
1.0000
  0
VERTEX
  8
16
 10
29.8450
 20
42.3926
 30
0.0000
  0
SEQEND
  8
0
  0
POLYLINE
  8
16
 66
1
 10
0.0000
 20
0.0000
 30
0.0000
 40
0.9652
 41
0.9652
 70
0
  0
VERTEX
  8
16
 10
28.5750
 20
42.3926
 30
0.0000
 42
1.0000
  0
VERTEX
  8
16
 10
28.5750
 20
41.4274
 30
0.0000
  0
SEQEND
  8
0
  0
POLYLINE
  8
16
 66
1
 10
0.0000
 20
0.0000
 30
0.0000
 40
1.9304
 41
1.9304
 70
0
  0
VERTEX
  8
16
 10
28.5750
 20
39.3700
 30
0.0000
  0
VERTEX
  8
16
 10
29.8450
 20
39.3700
 30
0.0000
  0
SEQEND
  8
0
  0
POLYLINE
  8
16
 66
1
 10
0.0000
 20
0.0000
 30
0.0000
 40
0.9652
 41
0.9652
 70
0
  0
VERTEX
  8
16
 10
29.8450
 20
38.8874
 30
0.0000
 42
1.0000
  0
VERTEX
  8
16
 10
29.8450
 20
39.8526
 30
0.0000
  0
SEQEND
  8
0
  0
POLYLINE
  8
16
 66
1
 10
0.0000
 20
0.0000
 30
0.0000
 40
0.9652
 41
0.9652
 70
0
  0
VERTEX
  8
16
 10
28.5750
 20
39.8526
 30
0.0000
 42
1.0000
  0
VERTEX
  8
16
 10
28.5750
 20
38.8874
 30
0.0000
  0
SEQEND
  8
0
  0
POLYLINE
  8
16
 66
1
 10
0.0000
 20
0.0000
 30
0.0000
 40
1.9304
 41
1.9304
 70
0
  0
VERTEX
  8
16
 10
5.7150
 20
44.4500
 30
0.0000
  0
VERTEX
  8
16
 10
6.9850
 20
44.4500
 30
0.0000
  0
SEQEND
  8
0
  0
POLYLINE
  8
16
 66
1
 10
0.0000
 20
0.0000
 30
0.0000
 40
0.9652
 41
0.9652
 70
0
  0
VERTEX
  8
16
 10
6.9850
 20
43.9674
 30
0.0000
 42
1.0000
  0
VERTEX
  8
16
 10
6.9850
 20
44.9326
 30
0.0000
  0
SEQEND
  8
0
  0
POLYLINE
  8
16
 66
1
 10
0.0000
 20
0.0000
 30
0.0000
 40
0.9652
 41
0.9652
 70
0
  0
VERTEX
  8
16
 10
5.7150
 20
44.9326
 30
0.0000
 42
1.0000
  0
VERTEX
  8
16
 10
5.7150
 20
43.9674
 30
0.0000
  0
SEQEND
  8
0
  0
POLYLINE
  8
16
 66
1
 10
0.0000
 20
0.0000
 30
0.0000
 40
1.9304
 41
1.9304
 70
0
  0
VERTEX
  8
16
 10
5.7150
 20
41.9100
 30
0.0000
  0
VERTEX
  8
16
 10
6.9850
 20
41.9100
 30
0.0000
  0
SEQEND
  8
0
  0
POLYLINE
  8
16
 66
1
 10
0.0000
 20
0.0000
 30
0.0000
 40
0.9652
 41
0.9652
 70
0
  0
VERTEX
  8
16
 10
6.9850
 20
41.4274
 30
0.0000
 42
1.0000
  0
VERTEX
  8
16
 10
6.9850
 20
42.3926
 30
0.0000
  0
SEQEND
  8
0
  0
POLYLINE
  8
16
 66
1
 10
0.0000
 20
0.0000
 30
0.0000
 40
0.9652
 41
0.9652
 70
0
  0
VERTEX
  8
16
 10
5.7150
 20
42.3926
 30
0.0000
 42
1.0000
  0
VERTEX
  8
16
 10
5.7150
 20
41.4274
 30
0.0000
  0
SEQEND
  8
0
  0
POLYLINE
  8
16
 66
1
 10
0.0000
 20
0.0000
 30
0.0000
 40
1.9304
 41
1.9304
 70
0
  0
VERTEX
  8
16
 10
5.7150
 20
39.3700
 30
0.0000
  0
VERTEX
  8
16
 10
6.9850
 20
39.3700
 30
0.0000
  0
SEQEND
  8
0
  0
POLYLINE
  8
16
 66
1
 10
0.0000
 20
0.0000
 30
0.0000
 40
0.9652
 41
0.9652
 70
0
  0
VERTEX
  8
16
 10
6.9850
 20
38.8874
 30
0.0000
 42
1.0000
  0
VERTEX
  8
16
 10
6.9850
 20
39.8526
 30
0.0000
  0
SEQEND
  8
0
  0
POLYLINE
  8
16
 66
1
 10
0.0000
 20
0.0000
 30
0.0000
 40
0.9652
 41
0.9652
 70
0
  0
VERTEX
  8
16
 10
5.7150
 20
39.8526
 30
0.0000
 42
1.0000
  0
VERTEX
  8
16
 10
5.7150
 20
38.8874
 30
0.0000
  0
SEQEND
  8
0
  0
POLYLINE
  8
16
 66
1
 10
0.0000
 20
0.0000
 30
0.0000
 40
1.9304
 41
1.9304
 70
0
  0
VERTEX
  8
16
 10
5.7150
 20
36.8300
 30
0.0000
  0
VERTEX
  8
16
 10
6.9850
 20
36.8300
 30
0.0000
  0
SEQEND
  8
0
  0
POLYLINE
  8
16
 66
1
 10
0.0000
 20
0.0000
 30
0.0000
 40
0.9652
 41
0.9652
 70
0
  0
VERTEX
  8
16
 10
6.9850
 20
36.3474
 30
0.0000
 42
1.0000
  0
VERTEX
  8
16
 10
6.9850
 20
37.3126
 30
0.0000
  0
SEQEND
  8
0
  0
POLYLINE
  8
16
 66
1
 10
0.0000
 20
0.0000
 30
0.0000
 40
0.9652
 41
0.9652
 70
0
  0
VERTEX
  8
16
 10
5.7150
 20
37.3126
 30
0.0000
 42
1.0000
  0
VERTEX
  8
16
 10
5.7150
 20
36.3474
 30
0.0000
  0
SEQEND
  8
0
  0
POLYLINE
  8
16
 66
1
 10
0.0000
 20
0.0000
 30
0.0000
 40
1.9304
 41
1.9304
 70
0
  0
VERTEX
  8
16
 10
5.7150
 20
34.2900
 30
0.0000
  0
VERTEX
  8
16
 10
6.9850
 20
34.2900
 30
0.0000
  0
SEQEND
  8
0
  0
POLYLINE
  8
16
 66
1
 10
0.0000
 20
0.0000
 30
0.0000
 40
0.9652
 41
0.9652
 70
0
  0
VERTEX
  8
16
 10
6.9850
 20
33.8074
 30
0.0000
 42
1.0000
  0
VERTEX
  8
16
 10
6.9850
 20
34.7726
 30
0.0000
  0
SEQEND
  8
0
  0
POLYLINE
  8
16
 66
1
 10
0.0000
 20
0.0000
 30
0.0000
 40
0.9652
 41
0.9652
 70
0
  0
VERTEX
  8
16
 10
5.7150
 20
34.7726
 30
0.0000
 42
1.0000
  0
VERTEX
  8
16
 10
5.7150
 20
33.8074
 30
0.0000
  0
SEQEND
  8
0
  0
POLYLINE
  8
16
 66
1
 10
0.0000
 20
0.0000
 30
0.0000
 40
1.9304
 41
1.9304
 70
0
  0
VERTEX
  8
16
 10
5.7150
 20
31.7500
 30
0.0000
  0
VERTEX
  8
16
 10
6.9850
 20
31.7500
 30
0.0000
  0
SEQEND
  8
0
  0
POLYLINE
  8
16
 66
1
 10
0.0000
 20
0.0000
 30
0.0000
 40
0.9652
 41
0.9652
 70
0
  0
VERTEX
  8
16
 10
6.9850
 20
31.2674
 30
0.0000
 42
1.0000
  0
VERTEX
  8
16
 10
6.9850
 20
32.2326
 30
0.0000
  0
SEQEND
  8
0
  0
POLYLINE
  8
16
 66
1
 10
0.0000
 20
0.0000
 30
0.0000
 40
0.9652
 41
0.9652
 70
0
  0
VERTEX
  8
16
 10
5.7150
 20
32.2326
 30
0.0000
 42
1.0000
  0
VERTEX
  8
16
 10
5.7150
 20
31.2674
 30
0.0000
  0
SEQEND
  8
0
  0
POLYLINE
  8
16
 66
1
 10
0.0000
 20
0.0000
 30
0.0000
 40
1.9304
 41
1.9304
 70
0
  0
VERTEX
  8
16
 10
5.7150
 20
29.2100
 30
0.0000
  0
VERTEX
  8
16
 10
6.9850
 20
29.2100
 30
0.0000
  0
SEQEND
  8
0
  0
POLYLINE
  8
16
 66
1
 10
0.0000
 20
0.0000
 30
0.0000
 40
0.9652
 41
0.9652
 70
0
  0
VERTEX
  8
16
 10
6.9850
 20
28.7274
 30
0.0000
 42
1.0000
  0
VERTEX
  8
16
 10
6.9850
 20
29.6926
 30
0.0000
  0
SEQEND
  8
0
  0
POLYLINE
  8
16
 66
1
 10
0.0000
 20
0.0000
 30
0.0000
 40
0.9652
 41
0.9652
 70
0
  0
VERTEX
  8
16
 10
5.7150
 20
29.6926
 30
0.0000
 42
1.0000
  0
VERTEX
  8
16
 10
5.7150
 20
28.7274
 30
0.0000
  0
SEQEND
  8
0
  0
POLYLINE
  8
16
 66
1
 10
0.0000
 20
0.0000
 30
0.0000
 40
0.8128
 41
0.8128
 70
0
  0
VERTEX
  8
16
 10
9.5250
 20
36.8300
 30
0.0000
  0
VERTEX
  8
16
 10
7.6200
 20
36.8300
 30
0.0000
  0
SEQEND
  8
0
  0
POLYLINE
  8
16
 66
1
 10
0.0000
 20
0.0000
 30
0.0000
 40
0.4064
 41
0.4064
 70
0
  0
VERTEX
  8
16
 10
7.6200
 20
37.0332
 30
0.0000
 42
1.0000
  0
VERTEX
  8
16
 10
7.6200
 20
36.6268
 30
0.0000
  0
SEQEND
  8
0
  0
POLYLINE
  8
16
 66
1
 10
0.0000
 20
0.0000
 30
0.0000
 40
0.4064
 41
0.4064
 70
0
  0
VERTEX
  8
16
 10
9.5250
 20
36.6268
 30
0.0000
 42
1.0000
  0
VERTEX
  8
16
 10
9.5250
 20
37.0332
 30
0.0000
  0
SEQEND
  8
0
  0
POLYLINE
  8
16
 66
1
 10
0.0000
 20
0.0000
 30
0.0000
 40
0.8128
 41
0.8128
 70
0
  0
VERTEX
  8
16
 10
9.5250
 20
29.2100
 30
0.0000
  0
VERTEX
  8
16
 10
9.5250
 20
36.8300
 30
0.0000
  0
SEQEND
  8
0
  0
POLYLINE
  8
16
 66
1
 10
0.0000
 20
0.0000
 30
0.0000
 40
0.4064
 41
0.4064
 70
0
  0
VERTEX
  8
16
 10
9.7282
 20
36.8300
 30
0.0000
 42
1.0000
  0
VERTEX
  8
16
 10
9.3218
 20
36.8300
 30
0.0000
  0
SEQEND
  8
0
  0
POLYLINE
  8
16
 66
1
 10
0.0000
 20
0.0000
 30
0.0000
 40
0.4064
 41
0.4064
 70
0
  0
VERTEX
  8
16
 10
9.3218
 20
29.2100
 30
0.0000
 42
1.0000
  0
VERTEX
  8
16
 10
9.7282
 20
29.2100
 30
0.0000
  0
SEQEND
  8
0
  0
POLYLINE
  8
16
 66
1
 10
0.0000
 20
0.0000
 30
0.0000
 40
0.8128
 41
0.8128
 70
0
  0
VERTEX
  8
16
 10
13.3350
 20
17.1450
 30
0.0000
  0
VERTEX
  8
16
 10
9.5250
 20
29.2100
 30
0.0000
  0
SEQEND
  8
0
  0
POLYLINE
  8
16
 66
1
 10
0.0000
 20
0.0000
 30
0.0000
 40
0.4064
 41
0.4064
 70
0
  0
VERTEX
  8
16
 10
9.7188
 20
29.2712
 30
0.0000
 42
1.0000
  0
VERTEX
  8
16
 10
9.3312
 20
29.1488
 30
0.0000
  0
SEQEND
  8
0
  0
POLYLINE
  8
16
 66
1
 10
0.0000
 20
0.0000
 30
0.0000
 40
0.4064
 41
0.4064
 70
0
  0
VERTEX
  8
16
 10
13.1412
 20
17.0838
 30
0.0000
 42
1.0000
  0
VERTEX
  8
16
 10
13.5288
 20
17.2062
 30
0.0000
  0
SEQEND
  8
0
  0
POLYLINE
  8
16
 66
1
 10
0.0000
 20
0.0000
 30
0.0000
 40
1.6764
 41
1.6764
 70
0
  0
VERTEX
  8
16
 10
30.4800
 20
95.2500
 30
0.0000
  0
VERTEX
  8
16
 10
28.5750
 20
95.2500
 30
0.0000
  0
SEQEND
  8
0
  0
POLYLINE
  8
16
 66
1
 10
0.0000
 20
0.0000
 30
0.0000
 40
0.8382
 41
0.8382
 70
0
  0
VERTEX
  8
16
 10
28.5750
 20
95.6691
 30
0.0000
 42
1.0000
  0
VERTEX
  8
16
 10
28.5750
 20
94.8309
 30
0.0000
  0
SEQEND
  8
0
  0
POLYLINE
  8
16
 66
1
 10
0.0000
 20
0.0000
 30
0.0000
 40
0.8382
 41
0.8382
 70
0
  0
VERTEX
  8
16
 10
30.4800
 20
94.8309
 30
0.0000
 42
1.0000
  0
VERTEX
  8
16
 10
30.4800
 20
95.6691
 30
0.0000
  0
SEQEND
  8
0
  0
POLYLINE
  8
16
 66
1
 10
0.0000
 20
0.0000
 30
0.0000
 40
0.8128
 41
0.8128
 70
0
  0
VERTEX
  8
16
 10
5.7150
 20
67.9450
 30
0.0000
  0
VERTEX
  8
16
 10
5.7150
 20
109.2200
 30
0.0000
  0
SEQEND
  8
0
  0
POLYLINE
  8
16
 66
1
 10
0.0000
 20
0.0000
 30
0.0000
 40
0.4064
 41
0.4064
 70
0
  0
VERTEX
  8
16
 10
5.9182
 20
109.2200
 30
0.0000
 42
1.0000
  0
VERTEX
  8
16
 10
5.5118
 20
109.2200
 30
0.0000
  0
SEQEND
  8
0
  0
POLYLINE
  8
16
 66
1
 10
0.0000
 20
0.0000
 30
0.0000
 40
0.4064
 41
0.4064
 70
0
  0
VERTEX
  8
16
 10
5.5118
 20
67.9450
 30
0.0000
 42
1.0000
  0
VERTEX
  8
16
 10
5.9182
 20
67.9450
 30
0.0000
  0
SEQEND
  8
0
  0
POLYLINE
  8
16
 66
1
 10
0.0000
 20
0.0000
 30
0.0000
 40
1.6764
 41
1.6764
 70
0
  0
VERTEX
  8
16
 10
4.4450
 20
109.2200
 30
0.0000
  0
VERTEX
  8
16
 10
5.7150
 20
109.2200
 30
0.0000
  0
SEQEND
  8
0
  0
POLYLINE
  8
16
 66
1
 10
0.0000
 20
0.0000
 30
0.0000
 40
0.8382
 41
0.8382
 70
0
  0
VERTEX
  8
16
 10
5.7150
 20
108.8009
 30
0.0000
 42
1.0000
  0
VERTEX
  8
16
 10
5.7150
 20
109.6391
 30
0.0000
  0
SEQEND
  8
0
  0
POLYLINE
  8
16
 66
1
 10
0.0000
 20
0.0000
 30
0.0000
 40
0.8382
 41
0.8382
 70
0
  0
VERTEX
  8
16
 10
4.4450
 20
109.6391
 30
0.0000
 42
1.0000
  0
VERTEX
  8
16
 10
4.4450
 20
108.8009
 30
0.0000
  0
SEQEND
  8
0
  0
POLYLINE
  8
16
 66
1
 10
0.0000
 20
0.0000
 30
0.0000
 40
1.6764
 41
1.6764
 70
0
  0
VERTEX
  8
16
 10
5.7150
 20
109.2200
 30
0.0000
  0
VERTEX
  8
16
 10
6.3500
 20
109.2200
 30
0.0000
  0
SEQEND
  8
0
  0
POLYLINE
  8
16
 66
1
 10
0.0000
 20
0.0000
 30
0.0000
 40
0.8382
 41
0.8382
 70
0
  0
VERTEX
  8
16
 10
6.3500
 20
108.8009
 30
0.0000
 42
1.0000
  0
VERTEX
  8
16
 10
6.3500
 20
109.6391
 30
0.0000
  0
SEQEND
  8
0
  0
POLYLINE
  8
16
 66
1
 10
0.0000
 20
0.0000
 30
0.0000
 40
0.8382
 41
0.8382
 70
0
  0
VERTEX
  8
16
 10
5.7150
 20
109.6391
 30
0.0000
 42
1.0000
  0
VERTEX
  8
16
 10
5.7150
 20
108.8009
 30
0.0000
  0
SEQEND
  8
0
  0
POLYLINE
  8
16
 66
1
 10
0.0000
 20
0.0000
 30
0.0000
 40
2.5400
 41
2.5400
 70
0
  0
VERTEX
  8
16
 10
26.0350
 20
30.4800
 30
0.0000
  0
VERTEX
  8
16
 10
21.5900
 20
30.4800
 30
0.0000
  0
SEQEND
  8
0
  0
POLYLINE
  8
16
 66
1
 10
0.0000
 20
0.0000
 30
0.0000
 40
1.2700
 41
1.2700
 70
0
  0
VERTEX
  8
16
 10
21.5900
 20
31.1150
 30
0.0000
 42
1.0000
  0
VERTEX
  8
16
 10
21.5900
 20
29.8450
 30
0.0000
  0
SEQEND
  8
0
  0
POLYLINE
  8
16
 66
1
 10
0.0000
 20
0.0000
 30
0.0000
 40
1.2700
 41
1.2700
 70
0
  0
VERTEX
  8
16
 10
26.0350
 20
29.8450
 30
0.0000
 42
1.0000
  0
VERTEX
  8
16
 10
26.0350
 20
31.1150
 30
0.0000
  0
SEQEND
  8
0
  0
POLYLINE
  8
16
 66
1
 10
0.0000
 20
0.0000
 30
0.0000
 40
1.6764
 41
1.6764
 70
0
  0
VERTEX
  8
16
 10
25.4000
 20
38.7350
 30
0.0000
  0
VERTEX
  8
16
 10
25.4000
 20
37.4650
 30
0.0000
  0
SEQEND
  8
0
  0
POLYLINE
  8
16
 66
1
 10
0.0000
 20
0.0000
 30
0.0000
 40
0.8382
 41
0.8382
 70
0
  0
VERTEX
  8
16
 10
24.9809
 20
37.4650
 30
0.0000
 42
1.0000
  0
VERTEX
  8
16
 10
25.8191
 20
37.4650
 30
0.0000
  0
SEQEND
  8
0
  0
POLYLINE
  8
16
 66
1
 10
0.0000
 20
0.0000
 30
0.0000
 40
0.8382
 41
0.8382
 70
0
  0
VERTEX
  8
16
 10
25.8191
 20
38.7350
 30
0.0000
 42
1.0000
  0
VERTEX
  8
16
 10
24.9809
 20
38.7350
 30
0.0000
  0
SEQEND
  8
0
  0
POLYLINE
  8
16
 66
1
 10
0.0000
 20
0.0000
 30
0.0000
 40
6.4516
 41
6.4516
 70
0
  0
VERTEX
  8
16
 10
18.4150
 20
43.1800
 30
0.0000
  0
VERTEX
  8
16
 10
18.4150
 20
62.2300
 30
0.0000
  0
SEQEND
  8
0
  0
POLYLINE
  8
16
 66
1
 10
0.0000
 20
0.0000
 30
0.0000
 40
3.2258
 41
3.2258
 70
0
  0
VERTEX
  8
16
 10
20.0279
 20
62.2300
 30
0.0000
 42
1.0000
  0
VERTEX
  8
16
 10
16.8021
 20
62.2300
 30
0.0000
  0
SEQEND
  8
0
  0
POLYLINE
  8
16
 66
1
 10
0.0000
 20
0.0000
 30
0.0000
 40
3.2258
 41
3.2258
 70
0
  0
VERTEX
  8
16
 10
16.8021
 20
43.1800
 30
0.0000
 42
1.0000
  0
VERTEX
  8
16
 10
20.0279
 20
43.1800
 30
0.0000
  0
SEQEND
  8
0
  0
POLYLINE
  8
16
 66
1
 10
0.0000
 20
0.0000
 30
0.0000
 40
0.8128
 41
0.8128
 70
0
  0
VERTEX
  8
16
 10
6.3500
 20
28.5750
 30
0.0000
  0
VERTEX
  8
16
 10
8.8900
 20
16.5100
 30
0.0000
  0
SEQEND
  8
0
  0
POLYLINE
  8
16
 66
1
 10
0.0000
 20
0.0000
 30
0.0000
 40
0.4064
 41
0.4064
 70
0
  0
VERTEX
  8
16
 10
8.6912
 20
16.4681
 30
0.0000
 42
1.0000
  0
VERTEX
  8
16
 10
9.0888
 20
16.5519
 30
0.0000
  0
SEQEND
  8
0
  0
POLYLINE
  8
16
 66
1
 10
0.0000
 20
0.0000
 30
0.0000
 40
0.4064
 41
0.4064
 70
0
  0
VERTEX
  8
16
 10
6.5488
 20
28.6169
 30
0.0000
 42
1.0000
  0
VERTEX
  8
16
 10
6.1512
 20
28.5331
 30
0.0000
  0
SEQEND
  8
0
  0
POLYLINE
  8
16
 66
1
 10
0.0000
 20
0.0000
 30
0.0000
 40
2.5400
 41
2.5400
 70
0
  0
VERTEX
  8
16
 10
8.8900
 20
8.2550
 30
0.0000
  0
VERTEX
  8
16
 10
8.8900
 20
6.3500
 30
0.0000
  0
SEQEND
  8
0
  0
POLYLINE
  8
16
 66
1
 10
0.0000
 20
0.0000
 30
0.0000
 40
1.2700
 41
1.2700
 70
0
  0
VERTEX
  8
16
 10
8.2550
 20
6.3500
 30
0.0000
 42
1.0000
  0
VERTEX
  8
16
 10
9.5250
 20
6.3500
 30
0.0000
  0
SEQEND
  8
0
  0
POLYLINE
  8
16
 66
1
 10
0.0000
 20
0.0000
 30
0.0000
 40
1.2700
 41
1.2700
 70
0
  0
VERTEX
  8
16
 10
9.5250
 20
8.2550
 30
0.0000
 42
1.0000
  0
VERTEX
  8
16
 10
8.2550
 20
8.2550
 30
0.0000
  0
SEQEND
  8
0
  0
POLYLINE
  8
16
 66
1
 10
0.0000
 20
0.0000
 30
0.0000
 40
1.6764
 41
1.6764
 70
0
  0
VERTEX
  8
16
 10
6.3500
 20
104.7750
 30
0.0000
  0
VERTEX
  8
16
 10
5.0800
 20
104.7750
 30
0.0000
  0
SEQEND
  8
0
  0
POLYLINE
  8
16
 66
1
 10
0.0000
 20
0.0000
 30
0.0000
 40
0.8382
 41
0.8382
 70
0
  0
VERTEX
  8
16
 10
5.0800
 20
105.1941
 30
0.0000
 42
1.0000
  0
VERTEX
  8
16
 10
5.0800
 20
104.3559
 30
0.0000
  0
SEQEND
  8
0
  0
POLYLINE
  8
16
 66
1
 10
0.0000
 20
0.0000
 30
0.0000
 40
0.8382
 41
0.8382
 70
0
  0
VERTEX
  8
16
 10
6.3500
 20
104.3559
 30
0.0000
 42
1.0000
  0
VERTEX
  8
16
 10
6.3500
 20
105.1941
 30
0.0000
  0
SEQEND
  8
0
  0
POLYLINE
  8
16
 66
1
 10
0.0000
 20
0.0000
 30
0.0000
 40
1.9304
 41
1.9304
 70
0
  0
VERTEX
  8
16
 10
28.5750
 20
72.3900
 30
0.0000
  0
VERTEX
  8
16
 10
29.8450
 20
72.3900
 30
0.0000
  0
SEQEND
  8
0
  0
POLYLINE
  8
16
 66
1
 10
0.0000
 20
0.0000
 30
0.0000
 40
0.9652
 41
0.9652
 70
0
  0
VERTEX
  8
16
 10
29.8450
 20
71.9074
 30
0.0000
 42
1.0000
  0
VERTEX
  8
16
 10
29.8450
 20
72.8726
 30
0.0000
  0
SEQEND
  8
0
  0
POLYLINE
  8
16
 66
1
 10
0.0000
 20
0.0000
 30
0.0000
 40
0.9652
 41
0.9652
 70
0
  0
VERTEX
  8
16
 10
28.5750
 20
72.8726
 30
0.0000
 42
1.0000
  0
VERTEX
  8
16
 10
28.5750
 20
71.9074
 30
0.0000
  0
SEQEND
  8
0
  0
POLYLINE
  8
16
 66
1
 10
0.0000
 20
0.0000
 30
0.0000
 40
2.5400
 41
2.5400
 70
0
  0
VERTEX
  8
16
 10
20.9550
 20
9.5250
 30
0.0000
  0
VERTEX
  8
16
 10
20.9550
 20
6.9850
 30
0.0000
  0
SEQEND
  8
0
  0
POLYLINE
  8
16
 66
1
 10
0.0000
 20
0.0000
 30
0.0000
 40
1.2700
 41
1.2700
 70
0
  0
VERTEX
  8
16
 10
20.3200
 20
6.9850
 30
0.0000
 42
1.0000
  0
VERTEX
  8
16
 10
21.5900
 20
6.9850
 30
0.0000
  0
SEQEND
  8
0
  0
POLYLINE
  8
16
 66
1
 10
0.0000
 20
0.0000
 30
0.0000
 40
1.2700
 41
1.2700
 70
0
  0
VERTEX
  8
16
 10
21.5900
 20
9.5250
 30
0.0000
 42
1.0000
  0
VERTEX
  8
16
 10
20.3200
 20
9.5250
 30
0.0000
  0
SEQEND
  8
0
  0
POLYLINE
  8
16
 66
1
 10
0.0000
 20
0.0000
 30
0.0000
 40
6.4516
 41
6.4516
 70
0
  0
VERTEX
  8
16
 10
17.7800
 20
139.7000
 30
0.0000
  0
VERTEX
  8
16
 10
17.7800
 20
121.2850
 30
0.0000
  0
SEQEND
  8
0
  0
POLYLINE
  8
16
 66
1
 10
0.0000
 20
0.0000
 30
0.0000
 40
3.2258
 41
3.2258
 70
0
  0
VERTEX
  8
16
 10
16.1671
 20
121.2850
 30
0.0000
 42
1.0000
  0
VERTEX
  8
16
 10
19.3929
 20
121.2850
 30
0.0000
  0
SEQEND
  8
0
  0
POLYLINE
  8
16
 66
1
 10
0.0000
 20
0.0000
 30
0.0000
 40
3.2258
 41
3.2258
 70
0
  0
VERTEX
  8
16
 10
19.3929
 20
139.7000
 30
0.0000
 42
1.0000
  0
VERTEX
  8
16
 10
16.1671
 20
139.7000
 30
0.0000
  0
SEQEND
  8
0
  0
POLYLINE
  8
16
 66
1
 10
0.0000
 20
0.0000
 30
0.0000
 40
2.5400
 41
2.5400
 70
0
  0
VERTEX
  8
16
 10
8.8900
 20
16.5100
 30
0.0000
  0
VERTEX
  8
16
 10
8.8900
 20
14.6050
 30
0.0000
  0
SEQEND
  8
0
  0
POLYLINE
  8
16
 66
1
 10
0.0000
 20
0.0000
 30
0.0000
 40
1.2700
 41
1.2700
 70
0
  0
VERTEX
  8
16
 10
8.2550
 20
14.6050
 30
0.0000
 42
1.0000
  0
VERTEX
  8
16
 10
9.5250
 20
14.6050
 30
0.0000
  0
SEQEND
  8
0
  0
POLYLINE
  8
16
 66
1
 10
0.0000
 20
0.0000
 30
0.0000
 40
1.2700
 41
1.2700
 70
0
  0
VERTEX
  8
16
 10
9.5250
 20
16.5100
 30
0.0000
 42
1.0000
  0
VERTEX
  8
16
 10
8.2550
 20
16.5100
 30
0.0000
  0
SEQEND
  8
0
  0
POLYLINE
  8
16
 66
1
 10
0.0000
 20
0.0000
 30
0.0000
 40
0.8128
 41
0.8128
 70
0
  0
VERTEX
  8
16
 10
25.4000
 20
39.3700
 30
0.0000
  0
VERTEX
  8
16
 10
24.1300
 20
41.2750
 30
0.0000
  0
SEQEND
  8
0
  0
POLYLINE
  8
16
 66
1
 10
0.0000
 20
0.0000
 30
0.0000
 40
0.4064
 41
0.4064
 70
0
  0
VERTEX
  8
16
 10
24.2991
 20
41.3877
 30
0.0000
 42
1.0000
  0
VERTEX
  8
16
 10
23.9609
 20
41.1623
 30
0.0000
  0
SEQEND
  8
0
  0
POLYLINE
  8
16
 66
1
 10
0.0000
 20
0.0000
 30
0.0000
 40
0.4064
 41
0.4064
 70
0
  0
VERTEX
  8
16
 10
25.2309
 20
39.2573
 30
0.0000
 42
1.0000
  0
VERTEX
  8
16
 10
25.5691
 20
39.4827
 30
0.0000
  0
SEQEND
  8
0
  0
POLYLINE
  8
16
 66
1
 10
0.0000
 20
0.0000
 30
0.0000
 40
0.8128
 41
0.8128
 70
0
  0
VERTEX
  8
16
 10
17.7800
 20
120.0150
 30
0.0000
  0
VERTEX
  8
16
 10
19.6850
 20
120.0150
 30
0.0000
  0
SEQEND
  8
0
  0
POLYLINE
  8
16
 66
1
 10
0.0000
 20
0.0000
 30
0.0000
 40
0.4064
 41
0.4064
 70
0
  0
VERTEX
  8
16
 10
19.6850
 20
119.8118
 30
0.0000
 42
1.0000
  0
VERTEX
  8
16
 10
19.6850
 20
120.2182
 30
0.0000
  0
SEQEND
  8
0
  0
POLYLINE
  8
16
 66
1
 10
0.0000
 20
0.0000
 30
0.0000
 40
0.4064
 41
0.4064
 70
0
  0
VERTEX
  8
16
 10
17.7800
 20
120.2182
 30
0.0000
 42
1.0000
  0
VERTEX
  8
16
 10
17.7800
 20
119.8118
 30
0.0000
  0
SEQEND
  8
0
  0
POLYLINE
  8
16
 66
1
 10
0.0000
 20
0.0000
 30
0.0000
 40
0.8128
 41
0.8128
 70
0
  0
VERTEX
  8
16
 10
17.7800
 20
91.4400
 30
0.0000
  0
VERTEX
  8
16
 10
17.7800
 20
120.0150
 30
0.0000
  0
SEQEND
  8
0
  0
POLYLINE
  8
16
 66
1
 10
0.0000
 20
0.0000
 30
0.0000
 40
0.4064
 41
0.4064
 70
0
  0
VERTEX
  8
16
 10
17.9832
 20
120.0150
 30
0.0000
 42
1.0000
  0
VERTEX
  8
16
 10
17.5768
 20
120.0150
 30
0.0000
  0
SEQEND
  8
0
  0
POLYLINE
  8
16
 66
1
 10
0.0000
 20
0.0000
 30
0.0000
 40
0.4064
 41
0.4064
 70
0
  0
VERTEX
  8
16
 10
17.5768
 20
91.4400
 30
0.0000
 42
1.0000
  0
VERTEX
  8
16
 10
17.9832
 20
91.4400
 30
0.0000
  0
SEQEND
  8
0
  0
POLYLINE
  8
16
 66
1
 10
0.0000
 20
0.0000
 30
0.0000
 40
0.8128
 41
0.8128
 70
0
  0
VERTEX
  8
16
 10
17.7800
 20
91.4400
 30
0.0000
  0
VERTEX
  8
16
 10
12.0650
 20
91.4400
 30
0.0000
  0
SEQEND
  8
0
  0
POLYLINE
  8
16
 66
1
 10
0.0000
 20
0.0000
 30
0.0000
 40
0.4064
 41
0.4064
 70
0
  0
VERTEX
  8
16
 10
12.0650
 20
91.6432
 30
0.0000
 42
1.0000
  0
VERTEX
  8
16
 10
12.0650
 20
91.2368
 30
0.0000
  0
SEQEND
  8
0
  0
POLYLINE
  8
16
 66
1
 10
0.0000
 20
0.0000
 30
0.0000
 40
0.4064
 41
0.4064
 70
0
  0
VERTEX
  8
16
 10
17.7800
 20
91.2368
 30
0.0000
 42
1.0000
  0
VERTEX
  8
16
 10
17.7800
 20
91.6432
 30
0.0000
  0
SEQEND
  8
0
  0
POLYLINE
  8
16
 66
1
 10
0.0000
 20
0.0000
 30
0.0000
 40
0.8128
 41
0.8128
 70
0
  0
VERTEX
  8
16
 10
21.5900
 20
30.4800
 30
0.0000
  0
VERTEX
  8
16
 10
12.0650
 20
30.4800
 30
0.0000
  0
SEQEND
  8
0
  0
POLYLINE
  8
16
 66
1
 10
0.0000
 20
0.0000
 30
0.0000
 40
0.4064
 41
0.4064
 70
0
  0
VERTEX
  8
16
 10
12.0650
 20
30.6832
 30
0.0000
 42
1.0000
  0
VERTEX
  8
16
 10
12.0650
 20
30.2768
 30
0.0000
  0
SEQEND
  8
0
  0
POLYLINE
  8
16
 66
1
 10
0.0000
 20
0.0000
 30
0.0000
 40
0.4064
 41
0.4064
 70
0
  0
VERTEX
  8
16
 10
21.5900
 20
30.2768
 30
0.0000
 42
1.0000
  0
VERTEX
  8
16
 10
21.5900
 20
30.6832
 30
0.0000
  0
SEQEND
  8
0
  0
POLYLINE
  8
16
 66
1
 10
0.0000
 20
0.0000
 30
0.0000
 40
0.8128
 41
0.8128
 70
0
  0
VERTEX
  8
16
 10
12.0650
 20
30.4800
 30
0.0000
  0
VERTEX
  8
16
 10
12.0650
 20
91.4400
 30
0.0000
  0
SEQEND
  8
0
  0
POLYLINE
  8
16
 66
1
 10
0.0000
 20
0.0000
 30
0.0000
 40
0.4064
 41
0.4064
 70
0
  0
VERTEX
  8
16
 10
12.2682
 20
91.4400
 30
0.0000
 42
1.0000
  0
VERTEX
  8
16
 10
11.8618
 20
91.4400
 30
0.0000
  0
SEQEND
  8
0
  0
POLYLINE
  8
16
 66
1
 10
0.0000
 20
0.0000
 30
0.0000
 40
0.4064
 41
0.4064
 70
0
  0
VERTEX
  8
16
 10
11.8618
 20
30.4800
 30
0.0000
 42
1.0000
  0
VERTEX
  8
16
 10
12.2682
 20
30.4800
 30
0.0000
  0
SEQEND
  8
0
  0
POLYLINE
  8
16
 66
1
 10
0.0000
 20
0.0000
 30
0.0000
 40
0.8128
 41
0.8128
 70
0
  0
VERTEX
  8
16
 10
23.4950
 20
69.8500
 30
0.0000
  0
VERTEX
  8
16
 10
28.5750
 20
69.8500
 30
0.0000
  0
SEQEND
  8
0
  0
POLYLINE
  8
16
 66
1
 10
0.0000
 20
0.0000
 30
0.0000
 40
0.4064
 41
0.4064
 70
0
  0
VERTEX
  8
16
 10
28.5750
 20
69.6468
 30
0.0000
 42
1.0000
  0
VERTEX
  8
16
 10
28.5750
 20
70.0532
 30
0.0000
  0
SEQEND
  8
0
  0
POLYLINE
  8
16
 66
1
 10
0.0000
 20
0.0000
 30
0.0000
 40
0.4064
 41
0.4064
 70
0
  0
VERTEX
  8
16
 10
23.4950
 20
70.0532
 30
0.0000
 42
1.0000
  0
VERTEX
  8
16
 10
23.4950
 20
69.6468
 30
0.0000
  0
SEQEND
  8
0
  0
POLYLINE
  8
16
 66
1
 10
0.0000
 20
0.0000
 30
0.0000
 40
1.6764
 41
1.6764
 70
0
  0
VERTEX
  8
16
 10
23.4950
 20
42.5450
 30
0.0000
  0
VERTEX
  8
16
 10
23.4950
 20
41.2750
 30
0.0000
  0
SEQEND
  8
0
  0
POLYLINE
  8
16
 66
1
 10
0.0000
 20
0.0000
 30
0.0000
 40
0.8382
 41
0.8382
 70
0
  0
VERTEX
  8
16
 10
23.0759
 20
41.2750
 30
0.0000
 42
1.0000
  0
VERTEX
  8
16
 10
23.9141
 20
41.2750
 30
0.0000
  0
SEQEND
  8
0
  0
POLYLINE
  8
16
 66
1
 10
0.0000
 20
0.0000
 30
0.0000
 40
0.8382
 41
0.8382
 70
0
  0
VERTEX
  8
16
 10
23.9141
 20
42.5450
 30
0.0000
 42
1.0000
  0
VERTEX
  8
16
 10
23.0759
 20
42.5450
 30
0.0000
  0
SEQEND
  8
0
  0
POLYLINE
  8
16
 66
1
 10
0.0000
 20
0.0000
 30
0.0000
 40
2.5400
 41
2.5400
 70
0
  0
VERTEX
  8
16
 10
26.6700
 20
6.9850
 30
0.0000
  0
VERTEX
  8
16
 10
26.6700
 20
9.5250
 30
0.0000
  0
SEQEND
  8
0
  0
POLYLINE
  8
16
 66
1
 10
0.0000
 20
0.0000
 30
0.0000
 40
1.2700
 41
1.2700
 70
0
  0
VERTEX
  8
16
 10
27.3050
 20
9.5250
 30
0.0000
 42
1.0000
  0
VERTEX
  8
16
 10
26.0350
 20
9.5250
 30
0.0000
  0
SEQEND
  8
0
  0
POLYLINE
  8
16
 66
1
 10
0.0000
 20
0.0000
 30
0.0000
 40
1.2700
 41
1.2700
 70
0
  0
VERTEX
  8
16
 10
26.0350
 20
6.9850
 30
0.0000
 42
1.0000
  0
VERTEX
  8
16
 10
27.3050
 20
6.9850
 30
0.0000
  0
SEQEND
  8
0
  0
POLYLINE
  8
16
 66
1
 10
0.0000
 20
0.0000
 30
0.0000
 40
1.9304
 41
1.9304
 70
0
  0
VERTEX
  8
16
 10
28.5750
 20
69.8500
 30
0.0000
  0
VERTEX
  8
16
 10
29.8450
 20
69.8500
 30
0.0000
  0
SEQEND
  8
0
  0
POLYLINE
  8
16
 66
1
 10
0.0000
 20
0.0000
 30
0.0000
 40
0.9652
 41
0.9652
 70
0
  0
VERTEX
  8
16
 10
29.8450
 20
69.3674
 30
0.0000
 42
1.0000
  0
VERTEX
  8
16
 10
29.8450
 20
70.3326
 30
0.0000
  0
SEQEND
  8
0
  0
POLYLINE
  8
16
 66
1
 10
0.0000
 20
0.0000
 30
0.0000
 40
0.9652
 41
0.9652
 70
0
  0
VERTEX
  8
16
 10
28.5750
 20
70.3326
 30
0.0000
 42
1.0000
  0
VERTEX
  8
16
 10
28.5750
 20
69.3674
 30
0.0000
  0
SEQEND
  8
0
  0
POLYLINE
  8
16
 66
1
 10
0.0000
 20
0.0000
 30
0.0000
 40
1.6764
 41
1.6764
 70
0
  0
VERTEX
  8
16
 10
4.4450
 20
121.9200
 30
0.0000
  0
VERTEX
  8
16
 10
6.3500
 20
121.9200
 30
0.0000
  0
SEQEND
  8
0
  0
POLYLINE
  8
16
 66
1
 10
0.0000
 20
0.0000
 30
0.0000
 40
0.8382
 41
0.8382
 70
0
  0
VERTEX
  8
16
 10
6.3500
 20
121.5009
 30
0.0000
 42
1.0000
  0
VERTEX
  8
16
 10
6.3500
 20
122.3391
 30
0.0000
  0
SEQEND
  8
0
  0
POLYLINE
  8
16
 66
1
 10
0.0000
 20
0.0000
 30
0.0000
 40
0.8382
 41
0.8382
 70
0
  0
VERTEX
  8
16
 10
4.4450
 20
122.3391
 30
0.0000
 42
1.0000
  0
VERTEX
  8
16
 10
4.4450
 20
121.5009
 30
0.0000
  0
SEQEND
  8
0
  0
POLYLINE
  8
16
 66
1
 10
0.0000
 20
0.0000
 30
0.0000
 40
1.7780
 41
1.7780
 70
0
  0
VERTEX
  8
16
 10
15.8750
 20
26.6700
 30
0.0000
  0
VERTEX
  8
16
 10
14.6050
 20
26.6700
 30
0.0000
  0
SEQEND
  8
0
  0
POLYLINE
  8
16
 66
1
 10
0.0000
 20
0.0000
 30
0.0000
 40
0.8890
 41
0.8890
 70
0
  0
VERTEX
  8
16
 10
14.6050
 20
27.1145
 30
0.0000
 42
1.0000
  0
VERTEX
  8
16
 10
14.6050
 20
26.2255
 30
0.0000
  0
SEQEND
  8
0
  0
POLYLINE
  8
16
 66
1
 10
0.0000
 20
0.0000
 30
0.0000
 40
0.8890
 41
0.8890
 70
0
  0
VERTEX
  8
16
 10
15.8750
 20
26.2255
 30
0.0000
 42
1.0000
  0
VERTEX
  8
16
 10
15.8750
 20
27.1145
 30
0.0000
  0
SEQEND
  8
0
  0
POLYLINE
  8
16
 66
1
 10
0.0000
 20
0.0000
 30
0.0000
 40
0.8128
 41
0.8128
 70
0
  0
VERTEX
  8
16
 10
20.9550
 20
10.1600
 30
0.0000
  0
VERTEX
  8
16
 10
15.8750
 20
26.6700
 30
0.0000
  0
SEQEND
  8
0
  0
POLYLINE
  8
16
 66
1
 10
0.0000
 20
0.0000
 30
0.0000
 40
0.4064
 41
0.4064
 70
0
  0
VERTEX
  8
16
 10
16.0692
 20
26.7298
 30
0.0000
 42
1.0000
  0
VERTEX
  8
16
 10
15.6808
 20
26.6102
 30
0.0000
  0
SEQEND
  8
0
  0
POLYLINE
  8
16
 66
1
 10
0.0000
 20
0.0000
 30
0.0000
 40
0.4064
 41
0.4064
 70
0
  0
VERTEX
  8
16
 10
20.7608
 20
10.1002
 30
0.0000
 42
1.0000
  0
VERTEX
  8
16
 10
21.1492
 20
10.2198
 30
0.0000
  0
SEQEND
  8
0
  0
POLYLINE
  8
16
 66
1
 10
0.0000
 20
0.0000
 30
0.0000
 40
1.7780
 41
1.7780
 70
0
  0
VERTEX
  8
16
 10
14.6050
 20
34.2900
 30
0.0000
  0
VERTEX
  8
16
 10
15.8750
 20
34.2900
 30
0.0000
  0
SEQEND
  8
0
  0
POLYLINE
  8
16
 66
1
 10
0.0000
 20
0.0000
 30
0.0000
 40
0.8890
 41
0.8890
 70
0
  0
VERTEX
  8
16
 10
15.8750
 20
33.8455
 30
0.0000
 42
1.0000
  0
VERTEX
  8
16
 10
15.8750
 20
34.7345
 30
0.0000
  0
SEQEND
  8
0
  0
POLYLINE
  8
16
 66
1
 10
0.0000
 20
0.0000
 30
0.0000
 40
0.8890
 41
0.8890
 70
0
  0
VERTEX
  8
16
 10
14.6050
 20
34.7345
 30
0.0000
 42
1.0000
  0
VERTEX
  8
16
 10
14.6050
 20
33.8455
 30
0.0000
  0
SEQEND
  8
0
  0
POLYLINE
  8
16
 66
1
 10
0.0000
 20
0.0000
 30
0.0000
 40
1.6764
 41
1.6764
 70
0
  0
VERTEX
  8
16
 10
26.0350
 20
46.9900
 30
0.0000
  0
VERTEX
  8
16
 10
26.0350
 20
45.7200
 30
0.0000
  0
SEQEND
  8
0
  0
POLYLINE
  8
16
 66
1
 10
0.0000
 20
0.0000
 30
0.0000
 40
0.8382
 41
0.8382
 70
0
  0
VERTEX
  8
16
 10
25.6159
 20
45.7200
 30
0.0000
 42
1.0000
  0
VERTEX
  8
16
 10
26.4541
 20
45.7200
 30
0.0000
  0
SEQEND
  8
0
  0
POLYLINE
  8
16
 66
1
 10
0.0000
 20
0.0000
 30
0.0000
 40
0.8382
 41
0.8382
 70
0
  0
VERTEX
  8
16
 10
26.4541
 20
46.9900
 30
0.0000
 42
1.0000
  0
VERTEX
  8
16
 10
25.6159
 20
46.9900
 30
0.0000
  0
SEQEND
  8
0
  0
POLYLINE
  8
16
 66
1
 10
0.0000
 20
0.0000
 30
0.0000
 40
0.8128
 41
0.8128
 70
0
  0
VERTEX
  8
16
 10
26.0350
 20
45.7200
 30
0.0000
  0
VERTEX
  8
16
 10
28.5750
 20
44.4500
 30
0.0000
  0
SEQEND
  8
0
  0
POLYLINE
  8
16
 66
1
 10
0.0000
 20
0.0000
 30
0.0000
 40
0.4064
 41
0.4064
 70
0
  0
VERTEX
  8
16
 10
28.4841
 20
44.2683
 30
0.0000
 42
1.0000
  0
VERTEX
  8
16
 10
28.6659
 20
44.6317
 30
0.0000
  0
SEQEND
  8
0
  0
POLYLINE
  8
16
 66
1
 10
0.0000
 20
0.0000
 30
0.0000
 40
0.4064
 41
0.4064
 70
0
  0
VERTEX
  8
16
 10
26.1259
 20
45.9017
 30
0.0000
 42
1.0000
  0
VERTEX
  8
16
 10
25.9441
 20
45.5383
 30
0.0000
  0
SEQEND
  8
0
  0
POLYLINE
  8
16
 66
1
 10
0.0000
 20
0.0000
 30
0.0000
 40
6.4516
 41
6.4516
 70
0
  0
VERTEX
  8
16
 10
17.1450
 20
43.1800
 30
0.0000
  0
VERTEX
  8
16
 10
17.1450
 20
62.2300
 30
0.0000
  0
SEQEND
  8
0
  0
POLYLINE
  8
16
 66
1
 10
0.0000
 20
0.0000
 30
0.0000
 40
3.2258
 41
3.2258
 70
0
  0
VERTEX
  8
16
 10
18.7579
 20
62.2300
 30
0.0000
 42
1.0000
  0
VERTEX
  8
16
 10
15.5321
 20
62.2300
 30
0.0000
  0
SEQEND
  8
0
  0
POLYLINE
  8
16
 66
1
 10
0.0000
 20
0.0000
 30
0.0000
 40
3.2258
 41
3.2258
 70
0
  0
VERTEX
  8
16
 10
15.5321
 20
43.1800
 30
0.0000
 42
1.0000
  0
VERTEX
  8
16
 10
18.7579
 20
43.1800
 30
0.0000
  0
SEQEND
  8
0
  0
POLYLINE
  8
16
 66
1
 10
0.0000
 20
0.0000
 30
0.0000
 40
6.4516
 41
6.4516
 70
0
  0
VERTEX
  8
16
 10
18.4150
 20
139.7000
 30
0.0000
  0
VERTEX
  8
16
 10
18.4150
 20
121.2850
 30
0.0000
  0
SEQEND
  8
0
  0
POLYLINE
  8
16
 66
1
 10
0.0000
 20
0.0000
 30
0.0000
 40
3.2258
 41
3.2258
 70
0
  0
VERTEX
  8
16
 10
16.8021
 20
121.2850
 30
0.0000
 42
1.0000
  0
VERTEX
  8
16
 10
20.0279
 20
121.2850
 30
0.0000
  0
SEQEND
  8
0
  0
POLYLINE
  8
16
 66
1
 10
0.0000
 20
0.0000
 30
0.0000
 40
3.2258
 41
3.2258
 70
0
  0
VERTEX
  8
16
 10
20.0279
 20
139.7000
 30
0.0000
 42
1.0000
  0
VERTEX
  8
16
 10
16.8021
 20
139.7000
 30
0.0000
  0
SEQEND
  8
0
  0
POLYLINE
  8
16
 66
1
 10
0.0000
 20
0.0000
 30
0.0000
 40
0.8128
 41
0.8128
 70
0
  0
VERTEX
  8
16
 10
27.9400
 20
95.2500
 30
0.0000
  0
VERTEX
  8
16
 10
23.4950
 20
95.2500
 30
0.0000
  0
SEQEND
  8
0
  0
POLYLINE
  8
16
 66
1
 10
0.0000
 20
0.0000
 30
0.0000
 40
0.4064
 41
0.4064
 70
0
  0
VERTEX
  8
16
 10
23.4950
 20
95.4532
 30
0.0000
 42
1.0000
  0
VERTEX
  8
16
 10
23.4950
 20
95.0468
 30
0.0000
  0
SEQEND
  8
0
  0
POLYLINE
  8
16
 66
1
 10
0.0000
 20
0.0000
 30
0.0000
 40
0.4064
 41
0.4064
 70
0
  0
VERTEX
  8
16
 10
27.9400
 20
95.0468
 30
0.0000
 42
1.0000
  0
VERTEX
  8
16
 10
27.9400
 20
95.4532
 30
0.0000
  0
SEQEND
  8
0
  0
POLYLINE
  8
16
 66
1
 10
0.0000
 20
0.0000
 30
0.0000
 40
0.8128
 41
0.8128
 70
0
  0
VERTEX
  8
16
 10
23.4950
 20
95.2500
 30
0.0000
  0
VERTEX
  8
16
 10
23.4950
 20
69.8500
 30
0.0000
  0
SEQEND
  8
0
  0
POLYLINE
  8
16
 66
1
 10
0.0000
 20
0.0000
 30
0.0000
 40
0.4064
 41
0.4064
 70
0
  0
VERTEX
  8
16
 10
23.2918
 20
69.8500
 30
0.0000
 42
1.0000
  0
VERTEX
  8
16
 10
23.6982
 20
69.8500
 30
0.0000
  0
SEQEND
  8
0
  0
POLYLINE
  8
16
 66
1
 10
0.0000
 20
0.0000
 30
0.0000
 40
0.4064
 41
0.4064
 70
0
  0
VERTEX
  8
16
 10
23.6982
 20
95.2500
 30
0.0000
 42
1.0000
  0
VERTEX
  8
16
 10
23.2918
 20
95.2500
 30
0.0000
  0
SEQEND
  8
0
  0
POLYLINE
  8
16
 66
1
 10
0.0000
 20
0.0000
 30
0.0000
 40
0.8128
 41
0.8128
 70
0
  0
VERTEX
  8
16
 10
6.9850
 20
121.9200
 30
0.0000
  0
VERTEX
  8
16
 10
13.9700
 20
121.9200
 30
0.0000
  0
SEQEND
  8
0
  0
POLYLINE
  8
16
 66
1
 10
0.0000
 20
0.0000
 30
0.0000
 40
0.4064
 41
0.4064
 70
0
  0
VERTEX
  8
16
 10
13.9700
 20
121.7168
 30
0.0000
 42
1.0000
  0
VERTEX
  8
16
 10
13.9700
 20
122.1232
 30
0.0000
  0
SEQEND
  8
0
  0
POLYLINE
  8
16
 66
1
 10
0.0000
 20
0.0000
 30
0.0000
 40
0.4064
 41
0.4064
 70
0
  0
VERTEX
  8
16
 10
6.9850
 20
122.1232
 30
0.0000
 42
1.0000
  0
VERTEX
  8
16
 10
6.9850
 20
121.7168
 30
0.0000
  0
SEQEND
  8
0
  0
POLYLINE
  8
16
 66
1
 10
0.0000
 20
0.0000
 30
0.0000
 40
0.8128
 41
0.8128
 70
0
  0
VERTEX
  8
16
 10
24.1300
 20
29.2100
 30
0.0000
  0
VERTEX
  8
16
 10
26.6700
 20
10.1600
 30
0.0000
  0
SEQEND
  8
0
  0
POLYLINE
  8
16
 66
1
 10
0.0000
 20
0.0000
 30
0.0000
 40
0.4064
 41
0.4064
 70
0
  0
VERTEX
  8
16
 10
26.4686
 20
10.1331
 30
0.0000
 42
1.0000
  0
VERTEX
  8
16
 10
26.8714
 20
10.1869
 30
0.0000
  0
SEQEND
  8
0
  0
POLYLINE
  8
16
 66
1
 10
0.0000
 20
0.0000
 30
0.0000
 40
0.4064
 41
0.4064
 70
0
  0
VERTEX
  8
16
 10
24.3314
 20
29.2369
 30
0.0000
 42
1.0000
  0
VERTEX
  8
16
 10
23.9286
 20
29.1831
 30
0.0000
  0
SEQEND
  8
0
  0
POLYLINE
  8
16
 66
1
 10
0.0000
 20
0.0000
 30
0.0000
 40
0.8128
 41
0.8128
 70
0
  0
VERTEX
  8
16
 10
23.4950
 20
62.2300
 30
0.0000
  0
VERTEX
  8
16
 10
27.9400
 20
62.2300
 30
0.0000
  0
SEQEND
  8
0
  0
POLYLINE
  8
16
 66
1
 10
0.0000
 20
0.0000
 30
0.0000
 40
0.4064
 41
0.4064
 70
0
  0
VERTEX
  8
16
 10
27.9400
 20
62.0268
 30
0.0000
 42
1.0000
  0
VERTEX
  8
16
 10
27.9400
 20
62.4332
 30
0.0000
  0
SEQEND
  8
0
  0
POLYLINE
  8
16
 66
1
 10
0.0000
 20
0.0000
 30
0.0000
 40
0.4064
 41
0.4064
 70
0
  0
VERTEX
  8
16
 10
23.4950
 20
62.4332
 30
0.0000
 42
1.0000
  0
VERTEX
  8
16
 10
23.4950
 20
62.0268
 30
0.0000
  0
SEQEND
  8
0
  0
POLYLINE
  8
16
 66
1
 10
0.0000
 20
0.0000
 30
0.0000
 40
0.8128
 41
0.8128
 70
0
  0
VERTEX
  8
16
 10
23.4950
 20
62.2300
 30
0.0000
  0
VERTEX
  8
16
 10
23.4950
 20
43.1800
 30
0.0000
  0
SEQEND
  8
0
  0
POLYLINE
  8
16
 66
1
 10
0.0000
 20
0.0000
 30
0.0000
 40
0.4064
 41
0.4064
 70
0
  0
VERTEX
  8
16
 10
23.2918
 20
43.1800
 30
0.0000
 42
1.0000
  0
VERTEX
  8
16
 10
23.6982
 20
43.1800
 30
0.0000
  0
SEQEND
  8
0
  0
POLYLINE
  8
16
 66
1
 10
0.0000
 20
0.0000
 30
0.0000
 40
0.4064
 41
0.4064
 70
0
  0
VERTEX
  8
16
 10
23.6982
 20
62.2300
 30
0.0000
 42
1.0000
  0
VERTEX
  8
16
 10
23.2918
 20
62.2300
 30
0.0000
  0
SEQEND
  8
0
  0
POLYLINE
  8
16
 66
1
 10
0.0000
 20
0.0000
 30
0.0000
 40
2.5400
 41
2.5400
 70
0
  0
VERTEX
  8
16
 10
21.5900
 20
34.2900
 30
0.0000
  0
VERTEX
  8
16
 10
26.0350
 20
34.2900
 30
0.0000
  0
SEQEND
  8
0
  0
POLYLINE
  8
16
 66
1
 10
0.0000
 20
0.0000
 30
0.0000
 40
1.2700
 41
1.2700
 70
0
  0
VERTEX
  8
16
 10
26.0350
 20
33.6550
 30
0.0000
 42
1.0000
  0
VERTEX
  8
16
 10
26.0350
 20
34.9250
 30
0.0000
  0
SEQEND
  8
0
  0
POLYLINE
  8
16
 66
1
 10
0.0000
 20
0.0000
 30
0.0000
 40
1.2700
 41
1.2700
 70
0
  0
VERTEX
  8
16
 10
21.5900
 20
34.9250
 30
0.0000
 42
1.0000
  0
VERTEX
  8
16
 10
21.5900
 20
33.6550
 30
0.0000
  0
SEQEND
  8
0
  0
POLYLINE
  8
16
 66
1
 10
0.0000
 20
0.0000
 30
0.0000
 40
0.8128
 41
0.8128
 70
0
  0
VERTEX
  8
16
 10
17.7800
 20
50.1650
 30
0.0000
  0
VERTEX
  8
16
 10
17.7800
 20
34.2900
 30
0.0000
  0
SEQEND
  8
0
  0
POLYLINE
  8
16
 66
1
 10
0.0000
 20
0.0000
 30
0.0000
 40
0.4064
 41
0.4064
 70
0
  0
VERTEX
  8
16
 10
17.5768
 20
34.2900
 30
0.0000
 42
1.0000
  0
VERTEX
  8
16
 10
17.9832
 20
34.2900
 30
0.0000
  0
SEQEND
  8
0
  0
POLYLINE
  8
16
 66
1
 10
0.0000
 20
0.0000
 30
0.0000
 40
0.4064
 41
0.4064
 70
0
  0
VERTEX
  8
16
 10
17.9832
 20
50.1650
 30
0.0000
 42
1.0000
  0
VERTEX
  8
16
 10
17.5768
 20
50.1650
 30
0.0000
  0
SEQEND
  8
0
  0
POLYLINE
  8
16
 66
1
 10
0.0000
 20
0.0000
 30
0.0000
 40
0.8128
 41
0.8128
 70
0
  0
VERTEX
  8
16
 10
24.1300
 20
34.2900
 30
0.0000
  0
VERTEX
  8
16
 10
17.7800
 20
34.2900
 30
0.0000
  0
SEQEND
  8
0
  0
POLYLINE
  8
16
 66
1
 10
0.0000
 20
0.0000
 30
0.0000
 40
0.4064
 41
0.4064
 70
0
  0
VERTEX
  8
16
 10
17.7800
 20
34.4932
 30
0.0000
 42
1.0000
  0
VERTEX
  8
16
 10
17.7800
 20
34.0868
 30
0.0000
  0
SEQEND
  8
0
  0
POLYLINE
  8
16
 66
1
 10
0.0000
 20
0.0000
 30
0.0000
 40
0.4064
 41
0.4064
 70
0
  0
VERTEX
  8
16
 10
24.1300
 20
34.0868
 30
0.0000
 42
1.0000
  0
VERTEX
  8
16
 10
24.1300
 20
34.4932
 30
0.0000
  0
SEQEND
  8
0
  0
POLYLINE
  8
16
 66
1
 10
0.0000
 20
0.0000
 30
0.0000
 40
0.8128
 41
0.8128
 70
0
  0
VERTEX
  8
16
 10
17.7800
 20
34.2900
 30
0.0000
  0
VERTEX
  8
16
 10
16.5100
 20
34.2900
 30
0.0000
  0
SEQEND
  8
0
  0
POLYLINE
  8
16
 66
1
 10
0.0000
 20
0.0000
 30
0.0000
 40
0.4064
 41
0.4064
 70
0
  0
VERTEX
  8
16
 10
16.5100
 20
34.4932
 30
0.0000
 42
1.0000
  0
VERTEX
  8
16
 10
16.5100
 20
34.0868
 30
0.0000
  0
SEQEND
  8
0
  0
POLYLINE
  8
16
 66
1
 10
0.0000
 20
0.0000
 30
0.0000
 40
0.4064
 41
0.4064
 70
0
  0
VERTEX
  8
16
 10
17.7800
 20
34.0868
 30
0.0000
 42
1.0000
  0
VERTEX
  8
16
 10
17.7800
 20
34.4932
 30
0.0000
  0
SEQEND
  8
0
  0
POLYLINE
  8
16
 66
1
 10
0.0000
 20
0.0000
 30
0.0000
 40
1.7780
 41
1.7780
 70
0
  0
VERTEX
  8
16
 10
30.4800
 20
92.7100
 30
0.0000
  0
VERTEX
  8
16
 10
28.5750
 20
92.7100
 30
0.0000
  0
SEQEND
  8
0
  0
POLYLINE
  8
16
 66
1
 10
0.0000
 20
0.0000
 30
0.0000
 40
0.8890
 41
0.8890
 70
0
  0
VERTEX
  8
16
 10
28.5750
 20
93.1545
 30
0.0000
 42
1.0000
  0
VERTEX
  8
16
 10
28.5750
 20
92.2655
 30
0.0000
  0
SEQEND
  8
0
  0
POLYLINE
  8
16
 66
1
 10
0.0000
 20
0.0000
 30
0.0000
 40
0.8890
 41
0.8890
 70
0
  0
VERTEX
  8
16
 10
30.4800
 20
92.2655
 30
0.0000
 42
1.0000
  0
VERTEX
  8
16
 10
30.4800
 20
93.1545
 30
0.0000
  0
SEQEND
  8
0
  0
POLYLINE
  8
16
 66
1
 10
0.0000
 20
0.0000
 30
0.0000
 40
3.8100
 41
3.8100
 70
0
  0
VERTEX
  8
16
 10
4.4450
 20
6.3500
 30
0.0000
  0
VERTEX
  8
16
 10
4.4450
 20
6.9850
 30
0.0000
  0
SEQEND
  8
0
  0
POLYLINE
  8
16
 66
1
 10
0.0000
 20
0.0000
 30
0.0000
 40
1.9050
 41
1.9050
 70
0
  0
VERTEX
  8
16
 10
5.3975
 20
6.9850
 30
0.0000
 42
1.0000
  0
VERTEX
  8
16
 10
3.4925
 20
6.9850
 30
0.0000
  0
SEQEND
  8
0
  0
POLYLINE
  8
16
 66
1
 10
0.0000
 20
0.0000
 30
0.0000
 40
1.9050
 41
1.9050
 70
0
  0
VERTEX
  8
16
 10
3.4925
 20
6.3500
 30
0.0000
 42
1.0000
  0
VERTEX
  8
16
 10
5.3975
 20
6.3500
 30
0.0000
  0
SEQEND
  8
0
  0
POLYLINE
  8
16
 66
1
 10
0.0000
 20
0.0000
 30
0.0000
 40
6.4516
 41
6.4516
 70
0
  0
VERTEX
  8
16
 10
17.1450
 20
139.7000
 30
0.0000
  0
VERTEX
  8
16
 10
17.1450
 20
121.2850
 30
0.0000
  0
SEQEND
  8
0
  0
POLYLINE
  8
16
 66
1
 10
0.0000
 20
0.0000
 30
0.0000
 40
3.2258
 41
3.2258
 70
0
  0
VERTEX
  8
16
 10
15.5321
 20
121.2850
 30
0.0000
 42
1.0000
  0
VERTEX
  8
16
 10
18.7579
 20
121.2850
 30
0.0000
  0
SEQEND
  8
0
  0
POLYLINE
  8
16
 66
1
 10
0.0000
 20
0.0000
 30
0.0000
 40
3.2258
 41
3.2258
 70
0
  0
VERTEX
  8
16
 10
18.7579
 20
139.7000
 30
0.0000
 42
1.0000
  0
VERTEX
  8
16
 10
15.5321
 20
139.7000
 30
0.0000
  0
SEQEND
  8
0
  0
POLYLINE
  8
16
 66
1
 10
0.0000
 20
0.0000
 30
0.0000
 40
2.5400
 41
2.5400
 70
0
  0
VERTEX
  8
16
 10
13.9700
 20
6.3500
 30
0.0000
  0
VERTEX
  8
16
 10
13.9700
 20
8.2550
 30
0.0000
  0
SEQEND
  8
0
  0
POLYLINE
  8
16
 66
1
 10
0.0000
 20
0.0000
 30
0.0000
 40
1.2700
 41
1.2700
 70
0
  0
VERTEX
  8
16
 10
14.6050
 20
8.2550
 30
0.0000
 42
1.0000
  0
VERTEX
  8
16
 10
13.3350
 20
8.2550
 30
0.0000
  0
SEQEND
  8
0
  0
POLYLINE
  8
16
 66
1
 10
0.0000
 20
0.0000
 30
0.0000
 40
1.2700
 41
1.2700
 70
0
  0
VERTEX
  8
16
 10
13.3350
 20
6.3500
 30
0.0000
 42
1.0000
  0
VERTEX
  8
16
 10
14.6050
 20
6.3500
 30
0.0000
  0
SEQEND
  8
0
  0
POLYLINE
  8
16
 66
1
 10
0.0000
 20
0.0000
 30
0.0000
 40
0.8128
 41
0.8128
 70
0
  0
VERTEX
  8
16
 10
8.8900
 20
13.9700
 30
0.0000
  0
VERTEX
  8
16
 10
8.8900
 20
9.5250
 30
0.0000
  0
SEQEND
  8
0
  0
POLYLINE
  8
16
 66
1
 10
0.0000
 20
0.0000
 30
0.0000
 40
0.4064
 41
0.4064
 70
0
  0
VERTEX
  8
16
 10
8.6868
 20
9.5250
 30
0.0000
 42
1.0000
  0
VERTEX
  8
16
 10
9.0932
 20
9.5250
 30
0.0000
  0
SEQEND
  8
0
  0
POLYLINE
  8
16
 66
1
 10
0.0000
 20
0.0000
 30
0.0000
 40
0.4064
 41
0.4064
 70
0
  0
VERTEX
  8
16
 10
9.0932
 20
13.9700
 30
0.0000
 42
1.0000
  0
VERTEX
  8
16
 10
8.6868
 20
13.9700
 30
0.0000
  0
SEQEND
  8
0
  0
POLYLINE
  8
16
 66
1
 10
0.0000
 20
0.0000
 30
0.0000
 40
0.8128
 41
0.8128
 70
0
  0
VERTEX
  8
16
 10
13.9700
 20
13.3350
 30
0.0000
  0
VERTEX
  8
16
 10
13.9700
 20
9.5250
 30
0.0000
  0
SEQEND
  8
0
  0
POLYLINE
  8
16
 66
1
 10
0.0000
 20
0.0000
 30
0.0000
 40
0.4064
 41
0.4064
 70
0
  0
VERTEX
  8
16
 10
13.7668
 20
9.5250
 30
0.0000
 42
1.0000
  0
VERTEX
  8
16
 10
14.1732
 20
9.5250
 30
0.0000
  0
SEQEND
  8
0
  0
POLYLINE
  8
16
 66
1
 10
0.0000
 20
0.0000
 30
0.0000
 40
0.4064
 41
0.4064
 70
0
  0
VERTEX
  8
16
 10
14.1732
 20
13.3350
 30
0.0000
 42
1.0000
  0
VERTEX
  8
16
 10
13.7668
 20
13.3350
 30
0.0000
  0
SEQEND
  8
0
  0
POLYLINE
  8
16
 66
1
 10
0.0000
 20
0.0000
 30
0.0000
 40
0.8128
 41
0.8128
 70
0
  0
VERTEX
  8
16
 10
27.9400
 20
72.3900
 30
0.0000
  0
VERTEX
  8
16
 10
26.0350
 20
72.3900
 30
0.0000
  0
SEQEND
  8
0
  0
POLYLINE
  8
16
 66
1
 10
0.0000
 20
0.0000
 30
0.0000
 40
0.4064
 41
0.4064
 70
0
  0
VERTEX
  8
16
 10
26.0350
 20
72.5932
 30
0.0000
 42
1.0000
  0
VERTEX
  8
16
 10
26.0350
 20
72.1868
 30
0.0000
  0
SEQEND
  8
0
  0
POLYLINE
  8
16
 66
1
 10
0.0000
 20
0.0000
 30
0.0000
 40
0.4064
 41
0.4064
 70
0
  0
VERTEX
  8
16
 10
27.9400
 20
72.1868
 30
0.0000
 42
1.0000
  0
VERTEX
  8
16
 10
27.9400
 20
72.5932
 30
0.0000
  0
SEQEND
  8
0
  0
POLYLINE
  8
16
 66
1
 10
0.0000
 20
0.0000
 30
0.0000
 40
0.8128
 41
0.8128
 70
0
  0
VERTEX
  8
16
 10
26.0350
 20
72.3900
 30
0.0000
  0
VERTEX
  8
16
 10
26.0350
 20
92.7100
 30
0.0000
  0
SEQEND
  8
0
  0
POLYLINE
  8
16
 66
1
 10
0.0000
 20
0.0000
 30
0.0000
 40
0.4064
 41
0.4064
 70
0
  0
VERTEX
  8
16
 10
26.2382
 20
92.7100
 30
0.0000
 42
1.0000
  0
VERTEX
  8
16
 10
25.8318
 20
92.7100
 30
0.0000
  0
SEQEND
  8
0
  0
POLYLINE
  8
16
 66
1
 10
0.0000
 20
0.0000
 30
0.0000
 40
0.4064
 41
0.4064
 70
0
  0
VERTEX
  8
16
 10
25.8318
 20
72.3900
 30
0.0000
 42
1.0000
  0
VERTEX
  8
16
 10
26.2382
 20
72.3900
 30
0.0000
  0
SEQEND
  8
0
  0
POLYLINE
  8
16
 66
1
 10
0.0000
 20
0.0000
 30
0.0000
 40
0.8128
 41
0.8128
 70
0
  0
VERTEX
  8
16
 10
26.0350
 20
92.7100
 30
0.0000
  0
VERTEX
  8
16
 10
27.9400
 20
92.7100
 30
0.0000
  0
SEQEND
  8
0
  0
POLYLINE
  8
16
 66
1
 10
0.0000
 20
0.0000
 30
0.0000
 40
0.4064
 41
0.4064
 70
0
  0
VERTEX
  8
16
 10
27.9400
 20
92.5068
 30
0.0000
 42
1.0000
  0
VERTEX
  8
16
 10
27.9400
 20
92.9132
 30
0.0000
  0
SEQEND
  8
0
  0
POLYLINE
  8
16
 66
1
 10
0.0000
 20
0.0000
 30
0.0000
 40
0.4064
 41
0.4064
 70
0
  0
VERTEX
  8
16
 10
26.0350
 20
92.9132
 30
0.0000
 42
1.0000
  0
VERTEX
  8
16
 10
26.0350
 20
92.5068
 30
0.0000
  0
SEQEND
  8
0
  0
POLYLINE
  8
16
 66
1
 10
0.0000
 20
0.0000
 30
0.0000
 40
3.8100
 41
3.8100
 70
0
  0
VERTEX
  8
16
 10
31.1150
 20
6.3500
 30
0.0000
  0
VERTEX
  8
16
 10
31.1150
 20
6.9850
 30
0.0000
  0
SEQEND
  8
0
  0
POLYLINE
  8
16
 66
1
 10
0.0000
 20
0.0000
 30
0.0000
 40
1.9050
 41
1.9050
 70
0
  0
VERTEX
  8
16
 10
32.0675
 20
6.9850
 30
0.0000
 42
1.0000
  0
VERTEX
  8
16
 10
30.1625
 20
6.9850
 30
0.0000
  0
SEQEND
  8
0
  0
POLYLINE
  8
16
 66
1
 10
0.0000
 20
0.0000
 30
0.0000
 40
1.9050
 41
1.9050
 70
0
  0
VERTEX
  8
16
 10
30.1625
 20
6.3500
 30
0.0000
 42
1.0000
  0
VERTEX
  8
16
 10
32.0675
 20
6.3500
 30
0.0000
  0
SEQEND
  8
0
  0
POLYLINE
  8
16
 66
1
 10
0.0000
 20
0.0000
 30
0.0000
 40
3.8100
 41
3.8100
 70
0
  0
VERTEX
  8
16
 10
4.4450
 20
11.4300
 30
0.0000
  0
VERTEX
  8
16
 10
4.4450
 20
12.0650
 30
0.0000
  0
SEQEND
  8
0
  0
POLYLINE
  8
16
 66
1
 10
0.0000
 20
0.0000
 30
0.0000
 40
1.9050
 41
1.9050
 70
0
  0
VERTEX
  8
16
 10
5.3975
 20
12.0650
 30
0.0000
 42
1.0000
  0
VERTEX
  8
16
 10
3.4925
 20
12.0650
 30
0.0000
  0
SEQEND
  8
0
  0
POLYLINE
  8
16
 66
1
 10
0.0000
 20
0.0000
 30
0.0000
 40
1.9050
 41
1.9050
 70
0
  0
VERTEX
  8
16
 10
3.4925
 20
11.4300
 30
0.0000
 42
1.0000
  0
VERTEX
  8
16
 10
5.3975
 20
11.4300
 30
0.0000
  0
SEQEND
  8
0
  0
POLYLINE
  8
16
 66
1
 10
0.0000
 20
0.0000
 30
0.0000
 40
3.8100
 41
3.8100
 70
0
  0
VERTEX
  8
16
 10
31.1150
 20
11.4300
 30
0.0000
  0
VERTEX
  8
16
 10
31.1150
 20
12.0650
 30
0.0000
  0
SEQEND
  8
0
  0
POLYLINE
  8
16
 66
1
 10
0.0000
 20
0.0000
 30
0.0000
 40
1.9050
 41
1.9050
 70
0
  0
VERTEX
  8
16
 10
32.0675
 20
12.0650
 30
0.0000
 42
1.0000
  0
VERTEX
  8
16
 10
30.1625
 20
12.0650
 30
0.0000
  0
SEQEND
  8
0
  0
POLYLINE
  8
16
 66
1
 10
0.0000
 20
0.0000
 30
0.0000
 40
1.9050
 41
1.9050
 70
0
  0
VERTEX
  8
16
 10
30.1625
 20
11.4300
 30
0.0000
 42
1.0000
  0
VERTEX
  8
16
 10
32.0675
 20
11.4300
 30
0.0000
  0
SEQEND
  8
0
  0
POLYLINE
  8
16
 66
1
 10
0.0000
 20
0.0000
 30
0.0000
 40
3.8100
 41
3.8100
 70
0
  0
VERTEX
  8
16
 10
4.4450
 20
16.5100
 30
0.0000
  0
VERTEX
  8
16
 10
4.4450
 20
17.1450
 30
0.0000
  0
SEQEND
  8
0
  0
POLYLINE
  8
16
 66
1
 10
0.0000
 20
0.0000
 30
0.0000
 40
1.9050
 41
1.9050
 70
0
  0
VERTEX
  8
16
 10
5.3975
 20
17.1450
 30
0.0000
 42
1.0000
  0
VERTEX
  8
16
 10
3.4925
 20
17.1450
 30
0.0000
  0
SEQEND
  8
0
  0
POLYLINE
  8
16
 66
1
 10
0.0000
 20
0.0000
 30
0.0000
 40
1.9050
 41
1.9050
 70
0
  0
VERTEX
  8
16
 10
3.4925
 20
16.5100
 30
0.0000
 42
1.0000
  0
VERTEX
  8
16
 10
5.3975
 20
16.5100
 30
0.0000
  0
SEQEND
  8
0
  0
POLYLINE
  8
16
 66
1
 10
0.0000
 20
0.0000
 30
0.0000
 40
3.8100
 41
3.8100
 70
0
  0
VERTEX
  8
16
 10
31.1150
 20
16.5100
 30
0.0000
  0
VERTEX
  8
16
 10
31.1150
 20
17.1450
 30
0.0000
  0
SEQEND
  8
0
  0
POLYLINE
  8
16
 66
1
 10
0.0000
 20
0.0000
 30
0.0000
 40
1.9050
 41
1.9050
 70
0
  0
VERTEX
  8
16
 10
32.0675
 20
17.1450
 30
0.0000
 42
1.0000
  0
VERTEX
  8
16
 10
30.1625
 20
17.1450
 30
0.0000
  0
SEQEND
  8
0
  0
POLYLINE
  8
16
 66
1
 10
0.0000
 20
0.0000
 30
0.0000
 40
1.9050
 41
1.9050
 70
0
  0
VERTEX
  8
16
 10
30.1625
 20
16.5100
 30
0.0000
 42
1.0000
  0
VERTEX
  8
16
 10
32.0675
 20
16.5100
 30
0.0000
  0
SEQEND
  8
0
  0
POLYLINE
  8
16
 66
1
 10
0.0000
 20
0.0000
 30
0.0000
 40
1.6764
 41
1.6764
 70
0
  0
VERTEX
  8
16
 10
30.4800
 20
90.1700
 30
0.0000
  0
VERTEX
  8
16
 10
28.5750
 20
90.1700
 30
0.0000
  0
SEQEND
  8
0
  0
POLYLINE
  8
16
 66
1
 10
0.0000
 20
0.0000
 30
0.0000
 40
0.8382
 41
0.8382
 70
0
  0
VERTEX
  8
16
 10
28.5750
 20
90.5891
 30
0.0000
 42
1.0000
  0
VERTEX
  8
16
 10
28.5750
 20
89.7509
 30
0.0000
  0
SEQEND
  8
0
  0
POLYLINE
  8
16
 66
1
 10
0.0000
 20
0.0000
 30
0.0000
 40
0.8382
 41
0.8382
 70
0
  0
VERTEX
  8
16
 10
30.4800
 20
89.7509
 30
0.0000
 42
1.0000
  0
VERTEX
  8
16
 10
30.4800
 20
90.5891
 30
0.0000
  0
SEQEND
  8
0
  0
POLYLINE
  8
16
 66
1
 10
0.0000
 20
0.0000
 30
0.0000
 40
1.6764
 41
1.6764
 70
0
  0
VERTEX
  8
16
 10
30.4800
 20
87.6300
 30
0.0000
  0
VERTEX
  8
16
 10
28.5750
 20
87.6300
 30
0.0000
  0
SEQEND
  8
0
  0
POLYLINE
  8
16
 66
1
 10
0.0000
 20
0.0000
 30
0.0000
 40
0.8382
 41
0.8382
 70
0
  0
VERTEX
  8
16
 10
28.5750
 20
88.0491
 30
0.0000
 42
1.0000
  0
VERTEX
  8
16
 10
28.5750
 20
87.2109
 30
0.0000
  0
SEQEND
  8
0
  0
POLYLINE
  8
16
 66
1
 10
0.0000
 20
0.0000
 30
0.0000
 40
0.8382
 41
0.8382
 70
0
  0
VERTEX
  8
16
 10
30.4800
 20
87.2109
 30
0.0000
 42
1.0000
  0
VERTEX
  8
16
 10
30.4800
 20
88.0491
 30
0.0000
  0
SEQEND
  8
0
  0
POLYLINE
  8
16
 66
1
 10
0.0000
 20
0.0000
 30
0.0000
 40
1.6764
 41
1.6764
 70
0
  0
VERTEX
  8
16
 10
30.4800
 20
85.0900
 30
0.0000
  0
VERTEX
  8
16
 10
28.5750
 20
85.0900
 30
0.0000
  0
SEQEND
  8
0
  0
POLYLINE
  8
16
 66
1
 10
0.0000
 20
0.0000
 30
0.0000
 40
0.8382
 41
0.8382
 70
0
  0
VERTEX
  8
16
 10
28.5750
 20
85.5091
 30
0.0000
 42
1.0000
  0
VERTEX
  8
16
 10
28.5750
 20
84.6709
 30
0.0000
  0
SEQEND
  8
0
  0
POLYLINE
  8
16
 66
1
 10
0.0000
 20
0.0000
 30
0.0000
 40
0.8382
 41
0.8382
 70
0
  0
VERTEX
  8
16
 10
30.4800
 20
84.6709
 30
0.0000
 42
1.0000
  0
VERTEX
  8
16
 10
30.4800
 20
85.5091
 30
0.0000
  0
SEQEND
  8
0
  0
POLYLINE
  8
16
 66
1
 10
0.0000
 20
0.0000
 30
0.0000
 40
1.6764
 41
1.6764
 70
0
  0
VERTEX
  8
16
 10
30.4800
 20
82.5500
 30
0.0000
  0
VERTEX
  8
16
 10
28.5750
 20
82.5500
 30
0.0000
  0
SEQEND
  8
0
  0
POLYLINE
  8
16
 66
1
 10
0.0000
 20
0.0000
 30
0.0000
 40
0.8382
 41
0.8382
 70
0
  0
VERTEX
  8
16
 10
28.5750
 20
82.9691
 30
0.0000
 42
1.0000
  0
VERTEX
  8
16
 10
28.5750
 20
82.1309
 30
0.0000
  0
SEQEND
  8
0
  0
POLYLINE
  8
16
 66
1
 10
0.0000
 20
0.0000
 30
0.0000
 40
0.8382
 41
0.8382
 70
0
  0
VERTEX
  8
16
 10
30.4800
 20
82.1309
 30
0.0000
 42
1.0000
  0
VERTEX
  8
16
 10
30.4800
 20
82.9691
 30
0.0000
  0
SEQEND
  8
0
  0
POLYLINE
  8
16
 66
1
 10
0.0000
 20
0.0000
 30
0.0000
 40
3.8100
 41
3.8100
 70
0
  0
VERTEX
  8
16
 10
5.7150
 20
135.2550
 30
0.0000
  0
VERTEX
  8
16
 10
5.7150
 20
126.3650
 30
0.0000
  0
SEQEND
  8
0
  0
POLYLINE
  8
16
 66
1
 10
0.0000
 20
0.0000
 30
0.0000
 40
1.9050
 41
1.9050
 70
0
  0
VERTEX
  8
16
 10
4.7625
 20
126.3650
 30
0.0000
 42
1.0000
  0
VERTEX
  8
16
 10
6.6675
 20
126.3650
 30
0.0000
  0
SEQEND
  8
0
  0
POLYLINE
  8
16
 66
1
 10
0.0000
 20
0.0000
 30
0.0000
 40
1.9050
 41
1.9050
 70
0
  0
VERTEX
  8
16
 10
6.6675
 20
135.2550
 30
0.0000
 42
1.0000
  0
VERTEX
  8
16
 10
4.7625
 20
135.2550
 30
0.0000
  0
SEQEND
  8
0
  0
POLYLINE
  8
16
 66
1
 10
0.0000
 20
0.0000
 30
0.0000
 40
3.8100
 41
3.8100
 70
0
  0
VERTEX
  8
16
 10
29.8450
 20
135.2550
 30
0.0000
  0
VERTEX
  8
16
 10
29.8450
 20
126.3650
 30
0.0000
  0
SEQEND
  8
0
  0
POLYLINE
  8
16
 66
1
 10
0.0000
 20
0.0000
 30
0.0000
 40
1.9050
 41
1.9050
 70
0
  0
VERTEX
  8
16
 10
28.8925
 20
126.3650
 30
0.0000
 42
1.0000
  0
VERTEX
  8
16
 10
30.7975
 20
126.3650
 30
0.0000
  0
SEQEND
  8
0
  0
POLYLINE
  8
16
 66
1
 10
0.0000
 20
0.0000
 30
0.0000
 40
1.9050
 41
1.9050
 70
0
  0
VERTEX
  8
16
 10
30.7975
 20
135.2550
 30
0.0000
 42
1.0000
  0
VERTEX
  8
16
 10
28.8925
 20
135.2550
 30
0.0000
  0
SEQEND
  8
0
  0
ENDSEC
  0
EOF
